<svg viewBox="0 0 56 56" fill="none" xmlns="http://www.w3.org/2000/svg">
  <circle cx="28" cy="28" r="28" fill="#E84142" />
  <path fill-rule="evenodd" clip-rule="evenodd"
    d="M29.6726 8.31138C28.7025 6.63579 27.1592 6.63579 26.1891 8.31138L8.5734 39.3319C7.60332 41.0295 8.39702 42.3744 10.3372 42.3744H19.1781C20.964 42.2641 22.5734 41.3161 23.5435 39.8169L34.1923 21.3633C34.964 19.7759 34.964 17.9019 34.1923 16.3145L31.0175 10.7366L29.6726 8.31138ZM41.3821 28.7262C40.4121 27.0506 38.8467 27.0506 37.8766 28.7262L31.7255 39.3309C30.7774 41.0065 31.5711 42.3735 33.4892 42.3735H45.6593C47.5995 42.3735 48.3932 41.0065 47.4231 39.3309L41.3821 28.7262Z"
    fill="white" />
</svg>