<svg viewBox="0 0 56 56" fill="none" xmlns="http://www.w3.org/2000/svg">
  <path
    d="M55.1615 34.7733C51.4219 49.7735 36.2291 58.9023 21.2272 55.1617C6.23157 51.4221 -2.89722 36.2284 0.844022 21.2295C4.58198 6.22773 19.7747 -2.90175 34.772 0.837856C49.7728 4.57746 58.9011 19.7728 55.161 34.7736L55.1613 34.7733H55.1615Z"
    fill="#F7931A" />
  <path fill-rule="evenodd" clip-rule="evenodd"
    d="M40.3476 24.0108C40.9049 20.2846 38.068 18.2816 34.1888 16.9454L35.4472 11.898L32.3747 11.1324L31.1497 16.047C30.3419 15.8455 29.5124 15.6557 28.6879 15.4675L29.9219 10.5205L26.8513 9.75488L25.5921 14.8007C24.9237 14.6485 24.2672 14.4981 23.6302 14.3396L23.6338 14.3237L19.3967 13.2657L18.5793 16.5473C18.5793 16.5473 20.8589 17.0699 20.8109 17.102C22.0551 17.4126 22.2801 18.2362 22.2427 18.889L20.8092 24.6393C20.8949 24.661 21.006 24.6925 21.1287 24.7418L21.0395 24.7195C20.9636 24.7005 20.8848 24.6808 20.8039 24.6614L18.7946 32.7167C18.6426 33.0947 18.2566 33.662 17.3867 33.4466C17.4175 33.4912 15.1536 32.8893 15.1536 32.8893L13.6281 36.4063L17.6265 37.4031C18.0643 37.5129 18.4969 37.6257 18.9252 37.7373L18.9254 37.7373C19.2247 37.8154 19.5218 37.8928 19.8171 37.9683L18.5457 43.0737L21.6147 43.8393L22.8738 38.7881C23.7122 39.0157 24.5258 39.2257 25.3224 39.4236L24.0675 44.4509L27.1402 45.2165L28.4115 40.1207C33.6508 41.1123 37.5904 40.7125 39.2486 35.9736C40.5848 32.1581 39.1821 29.9574 36.4257 28.5223C38.4333 28.0593 39.9455 26.7388 40.3487 24.0112L40.3477 24.0105L40.3476 24.0108ZM33.3275 33.8546C32.4563 37.3551 26.977 35.9079 24.4701 35.2458C24.2446 35.1862 24.0431 35.133 23.8712 35.0903L25.5584 28.3266C25.7679 28.3789 26.0239 28.4364 26.3139 28.5015L26.3139 28.5015C28.9071 29.0834 34.2201 30.2758 33.3276 33.8546H33.3275ZM26.8303 25.363C28.9204 25.9208 33.4799 27.1377 34.274 23.9561H34.2742C35.0851 20.7022 30.654 19.7212 28.4899 19.242C28.2464 19.1881 28.0316 19.1406 27.8563 19.0969L26.3266 25.2311C26.471 25.2671 26.6405 25.3124 26.8303 25.363Z"
    fill="white" />
</svg>