<svg viewBox="0 0 136 24" fill="none" xmlns="http://www.w3.org/2000/svg">
  <path
    d="M27.9394 6.70034C23.0587 6.70034 19.2451 10.4054 19.2451 15.3654C19.2451 20.3254 22.9624 23.9988 27.9394 23.9988C32.9165 23.9988 36.6984 20.262 36.6984 15.3337C36.6984 10.4371 32.9812 6.70034 27.9394 6.70034ZM27.9724 20.4242C25.193 20.4242 23.1563 18.2656 23.1563 15.3666C23.1563 12.4348 25.16 10.2774 27.9394 10.2774C30.7518 10.2774 32.7872 12.4677 32.7872 15.3666C32.7872 18.2656 30.7518 20.4242 27.9724 20.4242ZM37.7643 10.47H40.1888V23.678H44.0671V7.02231H37.7643V10.47ZM9.48484 10.2761C11.5215 10.2761 13.1375 11.5323 13.7509 13.4007H17.856C17.1121 9.40658 13.8156 6.70034 9.51777 6.70034C4.63703 6.70034 0.823425 10.4054 0.823425 15.3666C0.823425 20.3279 4.54069 24 9.51777 24C13.7192 24 17.0803 21.2938 17.8243 17.2667H13.7509C13.1692 19.1351 11.5532 20.4242 9.51655 20.4242C6.70421 20.4242 4.73338 18.2656 4.73338 15.3666C4.7346 12.4348 6.67372 10.2761 9.48484 10.2761ZM111.453 13.7556L108.609 13.3373C107.252 13.1446 106.282 12.6933 106.282 11.6299C106.282 10.47 107.543 9.89075 109.256 9.89075C111.13 9.89075 112.327 10.6957 112.585 12.0165H116.334C115.913 8.66629 113.328 6.70156 109.353 6.70156C105.248 6.70156 102.533 8.79557 102.533 11.7591C102.533 14.5934 104.312 16.2374 107.898 16.7521L110.742 17.1704C112.133 17.3631 112.908 17.9119 112.908 18.9424C112.908 20.2632 111.551 20.8108 109.677 20.8108C107.381 20.8108 106.089 19.8766 105.895 18.4595H102.081C102.437 21.7133 104.99 24 109.644 24C113.878 24 116.689 22.067 116.689 18.7485C116.689 15.7849 114.654 14.2385 111.453 13.7556ZM42.128 0.160984C40.7059 0.160984 39.6388 1.19152 39.6388 2.60867C39.6388 4.02581 40.7047 5.05635 42.128 5.05635C43.55 5.05635 44.6171 4.02581 44.6171 2.60867C44.6171 1.19152 43.55 0.160984 42.128 0.160984ZM99.0431 12.725C99.0431 9.11754 96.8454 6.70156 92.1915 6.70156C87.7961 6.70156 85.3399 8.92484 84.8545 12.3397H88.7011C88.895 11.0189 89.9292 9.92368 92.1269 9.92368C94.0989 9.92368 95.0685 10.7932 95.0685 11.8567C95.0685 13.2421 93.2903 13.5958 91.0927 13.8214C88.1193 14.1434 84.435 15.1739 84.435 19.04C84.435 22.0365 86.6656 23.9683 90.2207 23.9683C93.0001 23.9683 94.7453 22.8085 95.6185 20.9718C95.7478 22.6146 96.9759 23.678 98.6894 23.678H100.952V20.2315H99.0443V12.725H99.0431ZM95.2295 16.9131C95.2295 19.1363 93.2903 20.7791 90.9305 20.7791C89.4755 20.7791 88.2474 20.1669 88.2474 18.879C88.2474 17.2362 90.2194 16.785 92.0293 16.5923C93.7745 16.4313 94.7441 16.0447 95.2295 15.3032V16.9131ZM74.6418 6.70034C72.4759 6.70034 70.666 7.60283 69.3733 9.11632V0H65.495V23.678H69.3086V21.4877C70.6014 23.0658 72.4441 24 74.6418 24C79.2957 24 82.8191 20.3279 82.8191 15.3666C82.8191 10.4054 79.2311 6.70034 74.6418 6.70034ZM74.0601 20.4242C71.2807 20.4242 69.244 18.2656 69.244 15.3666C69.244 12.4677 71.3124 10.2774 74.0918 10.2774C76.9041 10.2774 78.875 12.436 78.875 15.3666C78.875 18.2656 76.8395 20.4242 74.0601 20.4242ZM56.2189 6.70034C53.6981 6.70034 52.0492 7.73088 51.0796 9.18095V7.02231H47.2331V23.6768H51.1114V14.6251C51.1114 12.0799 52.7273 10.2761 55.1189 10.2761C57.3495 10.2761 58.7386 11.8543 58.7386 14.1422V23.678H62.6168V13.8531C62.618 9.66391 60.4533 6.70034 56.2189 6.70034ZM135.177 14.819C135.177 10.0517 131.686 6.70156 126.999 6.70156C122.022 6.70156 118.37 10.4383 118.37 15.3666C118.37 20.5535 122.281 24 127.064 24C131.104 24 134.272 21.6157 135.079 18.2339H131.039C130.457 19.7156 129.035 20.5535 127.127 20.5535C124.638 20.5535 122.764 19.0071 122.344 16.3008H135.175V14.819H135.177ZM122.571 13.53C123.186 11.2103 124.931 10.0834 126.935 10.0834C129.132 10.0834 130.813 11.3396 131.201 13.53H122.571Z"
    fill="currentColor" />
</svg>