<svg width="153" height="28" viewBox="0 0 153 28" fill="none" xmlns="http://www.w3.org/2000/svg">
  <mask id="path-1-outside-1_734_2201" maskUnits="userSpaceOnUse" x="47.6927" y="1.01465" width="105" height="27"
    fill="black">
    <rect fill="white" x="47.6927" y="1.01465" width="105" height="27" />
    <path
      d="M54.9804 21.7199C61.1278 21.7199 64.8611 17.762 64.8611 11.8954C64.8611 6.00062 61.1278 2.07079 54.9804 2.07079H48.6927V21.7199H54.9804ZM51.1348 4.31641H54.9804C59.7523 4.31641 62.3629 7.29185 62.3629 11.8954C62.3629 16.4708 59.7523 19.4743 54.9804 19.4743H51.1348V4.31641Z" />
    <path
      d="M74.1958 21.8884C77.5081 21.8884 79.866 19.7831 80.4274 16.9199H78.0975C77.6203 18.7726 76.0484 19.8392 74.0274 19.8392C71.3046 19.8392 69.5923 17.9305 69.5081 15.2076V15.0112H80.6239C80.6519 14.6743 80.68 14.3375 80.68 14.0287C80.5677 9.7901 77.9291 7.23571 73.887 7.23571C69.8449 7.23571 67.094 10.2111 67.094 14.562C67.094 18.941 69.901 21.8884 74.1958 21.8884ZM69.6484 13.1024C69.873 10.7726 71.8098 9.25676 73.9151 9.25676C76.301 9.25676 77.9853 10.6322 78.2098 13.1024H69.6484Z" />
    <path
      d="M81.6263 9.50939H84.2087V21.7199H86.5105V9.50939H90.5526V7.40413H86.5105V5.74799C86.5105 4.65325 86.9315 4.17605 88.0824 4.17605H90.5526V2.07079H87.9421C85.2754 2.07079 84.2087 3.27781 84.2087 5.80413V7.40413H81.6263V9.50939Z" />
    <path
      d="M93.3945 4.99009C94.2366 4.99009 94.8822 4.37255 94.8822 3.50237C94.8822 2.63219 94.2366 2.01465 93.3945 2.01465C92.5524 2.01465 91.9068 2.63219 91.9068 3.50237C91.9068 4.37255 92.5524 4.99009 93.3945 4.99009ZM92.2155 21.7199H94.5173V7.40413H92.2155V21.7199Z" />
    <path
      d="M97.0811 17.0041C97.1373 20.148 99.6916 21.8884 103.397 21.8884C106.569 21.8884 109.123 20.2322 109.123 17.5655C109.123 14.3936 106.513 13.7761 103.257 13.3831C101.179 13.1304 99.6636 12.934 99.6636 11.362C99.6636 10.0427 101.011 9.20062 103.004 9.20062C104.969 9.20062 106.316 10.2954 106.485 11.755H108.843C108.618 8.77957 106.26 7.26378 103.004 7.23571C99.7759 7.20764 97.3899 8.91992 97.3899 11.5304C97.3899 14.5059 99.9443 15.1515 103.144 15.5445C105.278 15.7971 106.85 15.9375 106.85 17.734C106.85 19.0533 105.418 19.9234 103.397 19.9234C101.011 19.9234 99.5232 18.6883 99.439 17.0041H97.0811Z" />
    <path
      d="M118.892 7.23571C116.478 7.23571 114.934 8.38658 113.98 9.70588L113.671 7.40413H111.678V27.334H113.98V19.5305C114.85 20.9059 116.478 21.8884 118.892 21.8884C122.85 21.8884 125.77 18.941 125.77 14.562C125.77 9.90237 122.85 7.23571 118.892 7.23571ZM118.668 19.8392C115.861 19.8392 113.952 17.6498 113.952 14.5059C113.952 11.4462 115.861 9.28483 118.668 9.28483C121.503 9.28483 123.412 11.4462 123.412 14.562C123.412 17.6778 121.503 19.8392 118.668 19.8392Z" />
    <path
      d="M134.996 21.8884C139.179 21.8884 142.098 18.9129 142.098 14.562C142.098 10.2111 139.179 7.23571 134.996 7.23571C130.814 7.23571 127.895 10.2111 127.895 14.562C127.895 18.9129 130.814 21.8884 134.996 21.8884ZM134.996 19.8392C132.161 19.8392 130.252 17.6217 130.252 14.562C130.252 11.5024 132.161 9.28483 134.996 9.28483C137.831 9.28483 139.74 11.5024 139.74 14.562C139.74 17.6217 137.831 19.8392 134.996 19.8392Z" />
    <path
      d="M145.64 17.9866C145.64 20.5129 146.622 21.7199 149.373 21.7199H151.871V19.6147H149.598C148.363 19.6147 147.941 19.1655 147.941 17.9585V9.50939H151.647V7.40413H147.941V3.39009H145.64V7.40413H143.057V9.50939H145.64V17.9866Z" />
  </mask>
  <path
    d="M54.9804 21.7199C61.1278 21.7199 64.8611 17.762 64.8611 11.8954C64.8611 6.00062 61.1278 2.07079 54.9804 2.07079H48.6927V21.7199H54.9804ZM51.1348 4.31641H54.9804C59.7523 4.31641 62.3629 7.29185 62.3629 11.8954C62.3629 16.4708 59.7523 19.4743 54.9804 19.4743H51.1348V4.31641Z"
    fill="white" />
  <path
    d="M74.1958 21.8884C77.5081 21.8884 79.866 19.7831 80.4274 16.9199H78.0975C77.6203 18.7726 76.0484 19.8392 74.0274 19.8392C71.3046 19.8392 69.5923 17.9305 69.5081 15.2076V15.0112H80.6239C80.6519 14.6743 80.68 14.3375 80.68 14.0287C80.5677 9.7901 77.9291 7.23571 73.887 7.23571C69.8449 7.23571 67.094 10.2111 67.094 14.562C67.094 18.941 69.901 21.8884 74.1958 21.8884ZM69.6484 13.1024C69.873 10.7726 71.8098 9.25676 73.9151 9.25676C76.301 9.25676 77.9853 10.6322 78.2098 13.1024H69.6484Z"
    fill="white" />
  <path
    d="M81.6263 9.50939H84.2087V21.7199H86.5105V9.50939H90.5526V7.40413H86.5105V5.74799C86.5105 4.65325 86.9315 4.17605 88.0824 4.17605H90.5526V2.07079H87.9421C85.2754 2.07079 84.2087 3.27781 84.2087 5.80413V7.40413H81.6263V9.50939Z"
    fill="white" />
  <path
    d="M93.3945 4.99009C94.2366 4.99009 94.8822 4.37255 94.8822 3.50237C94.8822 2.63219 94.2366 2.01465 93.3945 2.01465C92.5524 2.01465 91.9068 2.63219 91.9068 3.50237C91.9068 4.37255 92.5524 4.99009 93.3945 4.99009ZM92.2155 21.7199H94.5173V7.40413H92.2155V21.7199Z"
    fill="white" />
  <path
    d="M97.0811 17.0041C97.1373 20.148 99.6916 21.8884 103.397 21.8884C106.569 21.8884 109.123 20.2322 109.123 17.5655C109.123 14.3936 106.513 13.7761 103.257 13.3831C101.179 13.1304 99.6636 12.934 99.6636 11.362C99.6636 10.0427 101.011 9.20062 103.004 9.20062C104.969 9.20062 106.316 10.2954 106.485 11.755H108.843C108.618 8.77957 106.26 7.26378 103.004 7.23571C99.7759 7.20764 97.3899 8.91992 97.3899 11.5304C97.3899 14.5059 99.9443 15.1515 103.144 15.5445C105.278 15.7971 106.85 15.9375 106.85 17.734C106.85 19.0533 105.418 19.9234 103.397 19.9234C101.011 19.9234 99.5232 18.6883 99.439 17.0041H97.0811Z"
    fill="white" />
  <path
    d="M118.892 7.23571C116.478 7.23571 114.934 8.38658 113.98 9.70588L113.671 7.40413H111.678V27.334H113.98V19.5305C114.85 20.9059 116.478 21.8884 118.892 21.8884C122.85 21.8884 125.77 18.941 125.77 14.562C125.77 9.90237 122.85 7.23571 118.892 7.23571ZM118.668 19.8392C115.861 19.8392 113.952 17.6498 113.952 14.5059C113.952 11.4462 115.861 9.28483 118.668 9.28483C121.503 9.28483 123.412 11.4462 123.412 14.562C123.412 17.6778 121.503 19.8392 118.668 19.8392Z"
    fill="white" />
  <path
    d="M134.996 21.8884C139.179 21.8884 142.098 18.9129 142.098 14.562C142.098 10.2111 139.179 7.23571 134.996 7.23571C130.814 7.23571 127.895 10.2111 127.895 14.562C127.895 18.9129 130.814 21.8884 134.996 21.8884ZM134.996 19.8392C132.161 19.8392 130.252 17.6217 130.252 14.562C130.252 11.5024 132.161 9.28483 134.996 9.28483C137.831 9.28483 139.74 11.5024 139.74 14.562C139.74 17.6217 137.831 19.8392 134.996 19.8392Z"
    fill="white" />
  <path
    d="M145.64 17.9866C145.64 20.5129 146.622 21.7199 149.373 21.7199H151.871V19.6147H149.598C148.363 19.6147 147.941 19.1655 147.941 17.9585V9.50939H151.647V7.40413H147.941V3.39009H145.64V7.40413H143.057V9.50939H145.64V17.9866Z"
    fill="white" />
  <path
    d="M48.6927 2.07079V1.87079H48.4927V2.07079H48.6927ZM48.6927 21.7199H48.4927V21.9199H48.6927V21.7199ZM51.1348 4.31641V4.11641H50.9348V4.31641H51.1348ZM51.1348 19.4743H50.9348V19.6743H51.1348V19.4743ZM80.4274 16.9199L80.6236 16.9584L80.6704 16.7199H80.4274V16.9199ZM78.0975 16.9199V16.7199H77.9425L77.9039 16.87L78.0975 16.9199ZM69.5081 15.2076H69.308L69.3082 15.2138L69.5081 15.2076ZM69.5081 15.0112V14.8112H69.3081V15.0112H69.5081ZM80.6239 15.0112V15.2112H80.8079L80.8232 15.0278L80.6239 15.0112ZM80.68 14.0287H80.8801L80.8799 14.0234L80.68 14.0287ZM69.6484 13.1024L69.4493 13.0832L69.4282 13.3024H69.6484V13.1024ZM78.2098 13.1024V13.3024H78.4288L78.409 13.0843L78.2098 13.1024ZM81.6263 9.50939H81.4263V9.70939H81.6263V9.50939ZM84.2087 9.50939H84.4087V9.30939H84.2087V9.50939ZM84.2087 21.7199H84.0087V21.9199H84.2087V21.7199ZM86.5105 21.7199V21.9199H86.7105V21.7199H86.5105ZM86.5105 9.50939V9.30939H86.3105V9.50939H86.5105ZM90.5526 9.50939V9.70939H90.7526V9.50939H90.5526ZM90.5526 7.40413H90.7526V7.20413H90.5526V7.40413ZM86.5105 7.40413H86.3105V7.60413H86.5105V7.40413ZM90.5526 4.17605V4.37605H90.7526V4.17605H90.5526ZM90.5526 2.07079H90.7526V1.87079H90.5526V2.07079ZM84.2087 7.40413V7.60413H84.4087V7.40413H84.2087ZM81.6263 7.40413V7.20413H81.4263V7.40413H81.6263ZM92.2155 21.7199H92.0155V21.9199H92.2155V21.7199ZM94.5173 21.7199V21.9199H94.7173V21.7199H94.5173ZM94.5173 7.40413H94.7173V7.20413H94.5173V7.40413ZM92.2155 7.40413V7.20413H92.0155V7.40413H92.2155ZM97.0811 17.0041V16.8041H96.8775L96.8811 17.0077L97.0811 17.0041ZM103.257 13.3831L103.232 13.5816L103.233 13.5816L103.257 13.3831ZM106.485 11.755L106.286 11.7779L106.306 11.955H106.485V11.755ZM108.843 11.755V11.955H109.058L109.042 11.74L108.843 11.755ZM103.004 7.23571L103.002 7.4357L103.002 7.4357L103.004 7.23571ZM103.144 15.5445L103.12 15.743L103.121 15.7431L103.144 15.5445ZM99.439 17.0041L99.6388 16.9941L99.6293 16.8041H99.439V17.0041ZM113.98 9.70588L113.782 9.73247L113.848 10.229L114.142 9.82311L113.98 9.70588ZM113.671 7.40413L113.869 7.37754L113.846 7.20413H113.671V7.40413ZM111.678 7.40413V7.20413H111.478V7.40413H111.678ZM111.678 27.334H111.478V27.534H111.678V27.334ZM113.98 27.334V27.534H114.18V27.334H113.98ZM113.98 19.5305L114.149 19.4235L113.78 18.8402V19.5305H113.98ZM151.871 21.7199V21.9199H152.071V21.7199H151.871ZM151.871 19.6147H152.071V19.4147H151.871V19.6147ZM147.941 9.50939V9.30939H147.741V9.50939H147.941ZM151.647 9.50939V9.70939H151.847V9.50939H151.647ZM151.647 7.40413H151.847V7.20413H151.647V7.40413ZM147.941 7.40413H147.741V7.60413H147.941V7.40413ZM147.941 3.39009H148.141V3.19009H147.941V3.39009ZM145.64 3.39009V3.19009H145.44V3.39009H145.64ZM145.64 7.40413V7.60413H145.84V7.40413H145.64ZM143.057 7.40413V7.20413H142.857V7.40413H143.057ZM143.057 9.50939H142.857V9.70939H143.057V9.50939ZM145.64 9.50939H145.84V9.30939H145.64V9.50939ZM54.9804 21.9199C58.098 21.9199 60.6228 20.9153 62.3683 19.1482C64.1134 17.3815 65.0611 14.8715 65.0611 11.8954H64.6611C64.6611 14.7859 63.7422 17.1882 62.0837 18.8671C60.4258 20.5456 58.0102 21.5199 54.9804 21.5199V21.9199ZM65.0611 11.8954C65.0611 8.90536 64.1135 6.39519 62.3682 4.63185C60.6225 2.86813 58.0976 1.87079 54.9804 1.87079V2.27079C58.0106 2.27079 60.4261 3.23836 62.0839 4.91324C63.7421 6.5885 64.6611 8.99062 64.6611 11.8954H65.0611ZM54.9804 1.87079H48.6927V2.27079H54.9804V1.87079ZM48.4927 2.07079V21.7199H48.8927V2.07079H48.4927ZM48.6927 21.9199H54.9804V21.5199H48.6927V21.9199ZM51.1348 4.51641H54.9804V4.11641H51.1348V4.51641ZM54.9804 4.51641C57.3237 4.51641 59.1122 5.24579 60.3159 6.51707C61.5211 7.78999 62.1629 9.63044 62.1629 11.8954H62.5629C62.5629 9.55676 61.8994 7.60774 60.6064 6.24206C59.3118 4.87474 57.409 4.11641 54.9804 4.11641V4.51641ZM62.1629 11.8954C62.1629 14.146 61.5212 15.9867 60.3157 17.2633C59.1118 18.5382 57.3232 19.2743 54.9804 19.2743V19.6743C57.4096 19.6743 59.3122 18.9086 60.6065 17.5379C61.8992 16.169 62.5629 14.2202 62.5629 11.8954H62.1629ZM54.9804 19.2743H51.1348V19.6743H54.9804V19.2743ZM51.3348 19.4743V4.31641H50.9348V19.4743H51.3348ZM74.1958 22.0884C77.6038 22.0884 80.0439 19.9153 80.6236 16.9584L80.2311 16.8814C79.6881 19.6509 77.4123 21.6884 74.1958 21.6884V22.0884ZM80.4274 16.7199H78.0975V17.1199H80.4274V16.7199ZM77.9039 16.87C77.453 18.6203 75.9725 19.6392 74.0274 19.6392V20.0392C76.1243 20.0392 77.7876 18.9249 78.2912 16.9698L77.9039 16.87ZM74.0274 19.6392C72.7152 19.6392 71.6606 19.1806 70.923 18.4065C70.1839 17.6307 69.7488 16.5228 69.708 15.2015L69.3082 15.2138C69.3515 16.6153 69.8147 17.8232 70.6334 18.6825C71.4538 19.5434 72.6167 20.0392 74.0274 20.0392V19.6392ZM69.7081 15.2076V15.0112H69.3081V15.2076H69.7081ZM69.5081 15.2112H80.6239V14.8112H69.5081V15.2112ZM80.8232 15.0278C80.8511 14.6929 80.88 14.3474 80.88 14.0287H80.48C80.48 14.3276 80.4528 14.6558 80.4246 14.9945L80.8232 15.0278ZM80.8799 14.0234C80.8227 11.8634 80.1205 10.1123 78.898 8.90067C77.6752 7.68877 75.951 7.03571 73.887 7.03571V7.43571C75.8651 7.43571 77.4813 8.05984 78.6164 9.18478C79.7518 10.31 80.425 11.9554 80.4801 14.034L80.8799 14.0234ZM73.887 7.03571C71.8145 7.03571 70.0616 7.79979 68.828 9.13137C67.5956 10.4617 66.894 12.3444 66.894 14.562H67.294C67.294 12.4288 67.9679 10.6483 69.1214 9.40321C70.2738 8.15934 71.9174 7.43571 73.887 7.43571V7.03571ZM66.894 14.562C66.894 16.7946 67.6103 18.6788 68.8904 20.0061C70.1713 21.3342 72.0011 22.0884 74.1958 22.0884V21.6884C72.0958 21.6884 70.3747 20.9689 69.1783 19.7285C67.9813 18.4873 67.294 16.7084 67.294 14.562H66.894ZM69.8475 13.1216C70.0613 10.903 71.9038 9.45676 73.9151 9.45676V9.05676C71.7158 9.05676 69.6846 10.6421 69.4493 13.0832L69.8475 13.1216ZM73.9151 9.45676C75.0697 9.45676 76.0374 9.78912 76.7414 10.4039C77.4443 11.0177 77.9023 11.9285 78.0106 13.1205L78.409 13.0843C78.2928 11.8061 77.7964 10.7941 77.0045 10.1026C76.2138 9.41212 75.1464 9.05676 73.9151 9.05676V9.45676ZM78.2098 12.9024H69.6484V13.3024H78.2098V12.9024ZM81.6263 9.70939H84.2087V9.30939H81.6263V9.70939ZM84.0087 9.50939V21.7199H84.4087V9.50939H84.0087ZM84.2087 21.9199H86.5105V21.5199H84.2087V21.9199ZM86.7105 21.7199V9.50939H86.3105V21.7199H86.7105ZM86.5105 9.70939H90.5526V9.30939H86.5105V9.70939ZM90.7526 9.50939V7.40413H90.3526V9.50939H90.7526ZM90.5526 7.20413H86.5105V7.60413H90.5526V7.20413ZM86.7105 7.40413V5.74799H86.3105V7.40413H86.7105ZM86.7105 5.74799C86.7105 5.2189 86.8136 4.89103 87.0082 4.69094C87.2017 4.49203 87.5281 4.37605 88.0824 4.37605V3.97605C87.4859 3.97605 87.0263 4.09868 86.7215 4.41205C86.4179 4.72424 86.3105 5.18233 86.3105 5.74799H86.7105ZM88.0824 4.37605H90.5526V3.97605H88.0824V4.37605ZM90.7526 4.17605V2.07079H90.3526V4.17605H90.7526ZM90.5526 1.87079H87.9421V2.27079H90.5526V1.87079ZM87.9421 1.87079C86.5831 1.87079 85.5857 2.1779 84.932 2.85072C84.2794 3.52237 84.0087 4.51829 84.0087 5.80413H84.4087C84.4087 4.56364 84.6714 3.69289 85.2188 3.12946C85.7651 2.56718 86.6343 2.27079 87.9421 2.27079V1.87079ZM84.0087 5.80413V7.40413H84.4087V5.80413H84.0087ZM84.2087 7.20413H81.6263V7.60413H84.2087V7.20413ZM81.4263 7.40413V9.50939H81.8263V7.40413H81.4263ZM93.3945 5.19009C94.3445 5.19009 95.0822 4.48549 95.0822 3.50237H94.6822C94.6822 4.2596 94.1286 4.79009 93.3945 4.79009V5.19009ZM95.0822 3.50237C95.0822 2.51925 94.3445 1.81465 93.3945 1.81465V2.21465C94.1286 2.21465 94.6822 2.74514 94.6822 3.50237H95.0822ZM93.3945 1.81465C92.4444 1.81465 91.7068 2.51925 91.7068 3.50237H92.1068C92.1068 2.74514 92.6603 2.21465 93.3945 2.21465V1.81465ZM91.7068 3.50237C91.7068 4.48549 92.4444 5.19009 93.3945 5.19009V4.79009C92.6603 4.79009 92.1068 4.2596 92.1068 3.50237H91.7068ZM92.2155 21.9199H94.5173V21.5199H92.2155V21.9199ZM94.7173 21.7199V7.40413H94.3173V21.7199H94.7173ZM94.5173 7.20413H92.2155V7.60413H94.5173V7.20413ZM92.0155 7.40413V21.7199H92.4155V7.40413H92.0155ZM96.8811 17.0077C96.9103 18.6395 97.5911 19.9192 98.7509 20.7854C99.9044 21.6469 101.516 22.0884 103.397 22.0884V21.6884C101.573 21.6884 100.054 21.2596 98.9903 20.465C97.9326 19.675 97.3081 18.5126 97.2811 17.0006L96.8811 17.0077ZM103.397 22.0884C105.015 22.0884 106.49 21.6662 107.567 20.8891C108.647 20.1089 109.323 18.9708 109.323 17.5655H108.923C108.923 18.827 108.322 19.8503 107.332 20.5648C106.339 21.2824 104.951 21.6884 103.397 21.6884V22.0884ZM109.323 17.5655C109.323 16.7446 109.154 16.0751 108.837 15.5289C108.521 14.9823 108.064 14.5721 107.509 14.2582C106.41 13.6358 104.905 13.3806 103.281 13.1845L103.233 13.5816C104.864 13.7786 106.292 14.0286 107.312 14.6062C107.818 14.8923 108.217 15.2558 108.491 15.7294C108.766 16.2033 108.923 16.8005 108.923 17.5655H109.323ZM103.281 13.1845C102.231 13.0569 101.367 12.9468 100.761 12.6838C100.463 12.5546 100.243 12.3942 100.095 12.1889C99.9495 11.9855 99.8636 11.7213 99.8636 11.362H99.4636C99.4636 11.7887 99.5671 12.1386 99.7703 12.422C99.9723 12.7036 100.261 12.9028 100.601 13.0508C101.273 13.3421 102.205 13.4566 103.232 13.5816L103.281 13.1845ZM99.8636 11.362C99.8636 10.7813 100.156 10.2998 100.694 9.95499C101.238 9.60638 102.032 9.40062 103.004 9.40062V9.00062C101.983 9.00062 101.106 9.21592 100.478 9.61819C99.8448 10.0242 99.4636 10.6235 99.4636 11.362H99.8636ZM103.004 9.40062C104.897 9.40062 106.132 10.4465 106.286 11.7779L106.683 11.7321C106.5 10.1442 105.04 9.00062 103.004 9.00062V9.40062ZM106.485 11.955H108.843V11.555H106.485V11.955ZM109.042 11.74C108.926 10.197 108.252 9.01967 107.179 8.22904C106.11 7.44251 104.662 7.04999 103.006 7.03571L103.002 7.4357C104.602 7.44949 105.961 7.8289 106.941 8.55115C107.917 9.26929 108.535 10.3376 108.643 11.7701L109.042 11.74ZM103.006 7.03571C101.358 7.02138 99.9087 7.45093 98.8663 8.23367C97.8199 9.01939 97.1899 10.1575 97.1899 11.5304H97.5899C97.5899 10.2928 98.1529 9.26957 99.1065 8.55353C100.064 7.83452 101.422 7.42196 103.002 7.4357L103.006 7.03571ZM97.1899 11.5304C97.1899 12.3037 97.3562 12.9388 97.6673 13.4601C97.9782 13.9813 98.4262 14.3758 98.9693 14.6803C100.046 15.2844 101.522 15.5468 103.12 15.743L103.169 15.346C101.566 15.1492 100.165 14.8923 99.1649 14.3314C98.6694 14.0535 98.2787 13.7042 98.0108 13.2552C97.7429 12.8063 97.5899 12.2449 97.5899 11.5304H97.1899ZM103.121 15.7431C104.202 15.8711 105.091 15.9672 105.716 16.2432C106.022 16.3782 106.25 16.551 106.404 16.7808C106.558 17.0102 106.65 17.3146 106.65 17.734H107.05C107.05 17.2551 106.944 16.8682 106.737 16.5582C106.529 16.2485 106.232 16.0336 105.878 15.8773C105.184 15.5709 104.22 15.4705 103.168 15.3459L103.121 15.7431ZM106.65 17.734C106.65 18.3102 106.341 18.7996 105.775 19.1539C105.205 19.511 104.382 19.7234 103.397 19.7234V20.1234C104.433 20.1234 105.336 19.9008 105.987 19.4929C106.643 19.0823 107.05 18.477 107.05 17.734H106.65ZM103.397 19.7234C102.237 19.7234 101.314 19.4233 100.676 18.9364C100.041 18.4516 99.6778 17.7755 99.6388 16.9941L99.2393 17.0141C99.2844 17.917 99.7075 18.7006 100.433 19.2544C101.157 19.8061 102.171 20.1234 103.397 20.1234V19.7234ZM99.439 16.8041H97.0811V17.2041H99.439V16.8041ZM118.892 7.03571C116.403 7.03571 114.803 8.22716 113.818 9.58866L114.142 9.82311C115.066 8.54601 116.554 7.43571 118.892 7.43571V7.03571ZM114.178 9.67929L113.869 7.37754L113.473 7.43072L113.782 9.73247L114.178 9.67929ZM113.671 7.20413H111.678V7.60413H113.671V7.20413ZM111.478 7.40413V27.334H111.878V7.40413H111.478ZM111.678 27.534H113.98V27.134H111.678V27.534ZM114.18 27.334V19.5305H113.78V27.334H114.18ZM113.811 19.6374C114.723 21.0786 116.419 22.0884 118.892 22.0884V21.6884C116.537 21.6884 114.978 20.7332 114.149 19.4235L113.811 19.6374ZM118.892 22.0884C120.923 22.0884 122.695 21.3314 123.96 20.0053C125.224 18.6796 125.97 16.7967 125.97 14.562H125.57C125.57 16.7063 124.855 18.4865 123.67 19.7293C122.486 20.9716 120.82 21.6884 118.892 21.6884V22.0884ZM125.97 14.562C125.97 12.1897 125.226 10.3045 123.958 9.01149C122.691 7.71863 120.917 7.03571 118.892 7.03571V7.43571C120.826 7.43571 122.491 8.08612 123.672 9.29151C124.854 10.4968 125.57 12.2747 125.57 14.562H125.97ZM118.668 19.6392C117.32 19.6392 116.196 19.115 115.407 18.2193C114.617 17.3216 114.152 16.0379 114.152 14.5059H113.752C113.752 16.1177 114.242 17.5007 115.107 18.4837C115.975 19.4687 117.209 20.0392 118.668 20.0392V19.6392ZM114.152 14.5059C114.152 13.0173 114.616 11.7621 115.406 10.8816C116.195 10.0028 117.319 9.48483 118.668 9.48483V9.08483C117.21 9.08483 115.976 9.64758 115.108 10.6144C114.242 11.5795 113.752 12.9348 113.752 14.5059H114.152ZM118.668 9.48483C120.031 9.48483 121.162 10.0031 121.954 10.8883C122.747 11.7754 123.212 13.0445 123.212 14.562H123.612C123.612 12.9637 123.122 11.5942 122.252 10.6217C121.38 9.64724 120.139 9.08483 118.668 9.08483V9.48483ZM123.212 14.562C123.212 16.0795 122.747 17.3486 121.954 18.2357C121.162 19.1209 120.031 19.6392 118.668 19.6392V20.0392C120.139 20.0392 121.38 19.4768 122.252 18.5024C123.122 17.5298 123.612 16.1603 123.612 14.562H123.212ZM134.996 22.0884C137.137 22.0884 138.965 21.3261 140.259 19.9962C141.552 18.6667 142.298 16.783 142.298 14.562H141.898C141.898 16.6919 141.184 18.4714 139.972 19.7173C138.761 20.9629 137.038 21.6884 134.996 21.6884V22.0884ZM142.298 14.562C142.298 12.341 141.552 10.4573 140.259 9.12783C138.965 7.79797 137.137 7.03571 134.996 7.03571V7.43571C137.038 7.43571 138.761 8.16117 139.972 9.40674C141.184 10.6527 141.898 12.4321 141.898 14.562H142.298ZM134.996 7.03571C132.856 7.03571 131.027 7.79797 129.734 9.12783C128.44 10.4573 127.695 12.341 127.695 14.562H128.095C128.095 12.4321 128.808 10.6527 130.02 9.40674C131.232 8.16117 132.954 7.43571 134.996 7.43571V7.03571ZM127.695 14.562C127.695 16.783 128.44 18.6667 129.734 19.9962C131.027 21.3261 132.856 22.0884 134.996 22.0884V21.6884C132.954 21.6884 131.232 20.9629 130.02 19.7173C128.808 18.4714 128.095 16.6919 128.095 14.562H127.695ZM134.996 19.6392C133.634 19.6392 132.503 19.1081 131.711 18.2152C130.917 17.3204 130.452 16.0507 130.452 14.562H130.052C130.052 16.133 130.543 17.5019 131.412 18.4808C132.282 19.4616 133.523 20.0392 134.996 20.0392V19.6392ZM130.452 14.562C130.452 13.0733 130.917 11.8036 131.711 10.9088C132.503 10.016 133.634 9.48483 134.996 9.48483V9.08483C133.523 9.08483 132.282 9.66245 131.412 10.6433C130.543 11.6222 130.052 12.9911 130.052 14.562H130.452ZM134.996 9.48483C136.358 9.48483 137.489 10.016 138.282 10.9088C139.076 11.8036 139.54 13.0733 139.54 14.562H139.94C139.94 12.9911 139.45 11.6222 138.581 10.6433C137.71 9.66245 136.469 9.08483 134.996 9.08483V9.48483ZM139.54 14.562C139.54 16.0507 139.076 17.3204 138.282 18.2152C137.489 19.1081 136.358 19.6392 134.996 19.6392V20.0392C136.469 20.0392 137.71 19.4616 138.581 18.4808C139.45 17.5019 139.94 16.133 139.94 14.562H139.54ZM145.44 17.9866C145.44 19.2688 145.688 20.2658 146.33 20.9387C146.974 21.6136 147.974 21.9199 149.373 21.9199V21.5199C148.021 21.5199 147.154 21.2227 146.619 20.6625C146.083 20.1004 145.84 19.2307 145.84 17.9866H145.44ZM149.373 21.9199H151.871V21.5199H149.373V21.9199ZM152.071 21.7199V19.6147H151.671V21.7199H152.071ZM151.871 19.4147H149.598V19.8147H151.871V19.4147ZM149.598 19.4147C148.995 19.4147 148.65 19.3031 148.449 19.0988C148.247 18.8938 148.141 18.5485 148.141 17.9585H147.741C147.741 18.5755 147.847 19.0583 148.164 19.3797C148.482 19.7017 148.965 19.8147 149.598 19.8147V19.4147ZM148.141 17.9585V9.50939H147.741V17.9585H148.141ZM147.941 9.70939H151.647V9.30939H147.941V9.70939ZM151.847 9.50939V7.40413H151.447V9.50939H151.847ZM151.647 7.20413H147.941V7.60413H151.647V7.20413ZM148.141 7.40413V3.39009H147.741V7.40413H148.141ZM147.941 3.19009H145.64V3.59009H147.941V3.19009ZM145.44 3.39009V7.40413H145.84V3.39009H145.44ZM145.64 7.20413H143.057V7.60413H145.64V7.20413ZM142.857 7.40413V9.50939H143.257V7.40413H142.857ZM143.057 9.70939H145.64V9.30939H143.057V9.70939ZM145.44 9.50939V17.9866H145.84V9.50939H145.44Z"
    fill="white" mask="url(#path-1-outside-1_734_2201)" />
  <rect y="11.52" width="12.1855" height="12.1855" fill="white" />
  <path d="M12.1875 0.666992V11.5197L23.9922 23.3244H32.7506V11.3293L22.0882 0.666992H12.1875Z" fill="white" />
</svg>