<svg width="14" height="12" viewBox="0 0 14 12" fill="none" xmlns="http://www.w3.org/2000/svg">
  <path
    d="M1.92863 2.15321L1.11403 8.1812C1.02049 8.87343 1.36853 9.55055 1.98588 9.87738L4.5 11.2084L5.33333 9.12505C5.33333 9.12505 5.88021 9.54172 7 9.54172C8.11979 9.54172 8.66667 9.12505 8.66667 9.12505L9.5 11.2084L12.0141 9.87738C12.6315 9.55055 12.9795 8.87343 12.886 8.1812L12.0714 2.15321C12.0279 1.83121 11.8012 1.56387 11.4906 1.46832L9.29167 0.791748V1.20841C9.29167 1.66865 8.91857 2.04175 8.45833 2.04175H5.54167C5.08143 2.04175 4.70833 1.66865 4.70833 1.20841V0.791748L2.50939 1.46832C2.19884 1.56387 1.97214 1.83121 1.92863 2.15321Z"
    stroke="currentColor" stroke-width="1.5" stroke-linecap="round" stroke-linejoin="round" />
  <path
    d="M5.75 5.99992C5.75 6.23004 5.56345 6.41658 5.33333 6.41658C5.10322 6.41658 4.91667 6.23004 4.91667 5.99992C4.91667 5.7698 5.10322 5.58325 5.33333 5.58325C5.56345 5.58325 5.75 5.7698 5.75 5.99992Z"
    stroke="currentColor" stroke-linecap="round" stroke-linejoin="round" />
  <path
    d="M9.08333 5.99992C9.08333 6.23004 8.89679 6.41658 8.66667 6.41658C8.43655 6.41658 8.25 6.23004 8.25 5.99992C8.25 5.7698 8.43655 5.58325 8.66667 5.58325C8.89679 5.58325 9.08333 5.7698 9.08333 5.99992Z"
    stroke="currentColor" stroke-linecap="round" stroke-linejoin="round" />
</svg>