<svg viewBox="0 0 56 56" fill="none" xmlns="http://www.w3.org/2000/svg">
  <circle cx="28" cy="28" r="28" fill="#EDF0F4" />
  <path
    d="M28.1205 9.33301C20.335 9.36428 14.0313 15.668 14 23.4535C14 25.0126 14.2517 26.5614 14.7446 28.0402C15.1124 29.0468 16.204 29.5889 17.2286 29.2777C18.2189 28.8979 18.7445 27.8153 18.4288 26.8026C18.0104 25.65 17.8242 24.4274 17.8793 23.2033C18.0491 17.5801 22.7445 13.1587 28.3677 13.3285C33.9908 13.4983 38.4122 18.1937 38.2424 23.8168C38.0831 29.0811 33.9372 33.3565 28.6789 33.6767C28.6789 33.6767 26.6968 33.7973 25.711 33.918C25.3476 33.9701 24.9872 34.0416 24.6313 34.1324C24.5807 34.1845 24.4988 34.1845 24.4466 34.1339L24.4451 34.1324C24.4094 34.0862 24.4094 34.0207 24.4451 33.9746L24.7519 32.3007L26.6134 23.9285C26.8368 22.8831 26.1711 21.8541 25.1257 21.6307C24.0803 21.4073 23.0513 22.073 22.8279 23.1184C22.8279 23.1184 18.4005 43.6111 18.4005 43.7972C18.1474 44.7935 18.749 45.8061 19.7453 46.0593C19.7557 46.0623 19.7676 46.0652 19.778 46.0667H19.8808C20.8756 46.3244 21.8912 45.7257 22.1473 44.7309C22.1518 44.7146 22.1563 44.6982 22.1592 44.6803C22.1563 44.649 22.1563 44.6178 22.1592 44.588C22.2143 44.3467 22.7728 41.62 22.7728 41.62C23.1957 39.562 24.8547 37.9849 26.9306 37.6662C27.358 37.6007 29.1539 37.4801 29.1539 37.4801C36.9096 36.7072 42.57 29.7929 41.7956 22.0372C41.0898 14.9636 35.2298 9.51767 28.1205 9.33301Z"
    fill="#1E1E1E" />
  <path
    d="M28.9778 41.8907C27.7045 41.6256 26.4596 42.4432 26.1945 43.715C26.1915 43.7269 26.19 43.7388 26.187 43.7507C25.9115 45.015 26.7127 46.2644 27.9785 46.5399C27.98 46.5399 27.9815 46.5399 27.983 46.5414H28.0485C29.2875 46.8408 30.534 46.0783 30.8318 44.8408C30.8348 44.8319 30.8363 44.8214 30.8393 44.8125V44.6829C31.0582 43.4052 30.2421 42.1796 28.9778 41.8907Z"
    fill="#E6007A" />
</svg>