<svg viewBox="0 0 16 16" fill="none" xmlns="http://www.w3.org/2000/svg">
  <path
    d="M0.75 3.75C0.75 2.09315 2.09315 0.75 3.75 0.75H12.25C13.9069 0.75 15.25 2.09315 15.25 3.75V12.25C15.25 13.9069 13.9069 15.25 12.25 15.25H3.75C2.09315 15.25 0.75 13.9069 0.75 12.25V3.75Z"
    stroke="currentColor" stroke-width="1.5" stroke-linecap="round" stroke-linejoin="round" />
  <path
    d="M12.5 4C12.5 4.27614 12.2761 4.5 12 4.5C11.7239 4.5 11.5 4.27614 11.5 4C11.5 3.72386 11.7239 3.5 12 3.5C12.2761 3.5 12.5 3.72386 12.5 4Z"
    stroke="currentColor" stroke-linecap="round" stroke-linejoin="round" />
  <path
    d="M11.25 9C11.25 10.7949 9.79493 12.25 8 12.25C6.20507 12.25 4.75 10.7949 4.75 9C4.75 7.20507 6.20507 5.75 8 5.75C9.79493 5.75 11.25 7.20507 11.25 9Z"
    stroke="currentColor" stroke-width="1.5" stroke-linecap="round" stroke-linejoin="round" />
</svg>