<svg viewBox="0 0 56 56" fill="none" xmlns="http://www.w3.org/2000/svg">
  <circle cx="28" cy="28" r="28" fill="#8247E5" />
  <path
    d="M36.4049 22.3755C35.8078 22.0321 35.0402 22.0321 34.3579 22.3755L29.5815 25.2088L26.3405 27.0117L21.6494 29.845C21.0524 30.1884 20.2848 30.1884 19.6024 29.845L15.9349 27.6127C15.3379 27.2693 14.9114 26.5825 14.9114 25.8098V21.517C14.9114 20.8301 15.2526 20.1433 15.9349 19.714L19.6024 17.5676C20.1995 17.2242 20.9671 17.2242 21.6494 17.5676L25.317 19.7999C25.914 20.1433 26.3405 20.8301 26.3405 21.6028V24.4361L29.5815 22.5472V19.6282C29.5815 18.9413 29.2404 18.2545 28.558 17.8252L21.7347 13.79C21.1377 13.4466 20.3701 13.4466 19.6877 13.79L12.6938 17.911C12.0115 18.2545 11.6703 18.9413 11.6703 19.6282V27.6986C11.6703 28.3854 12.0115 29.0723 12.6938 29.5015L19.6024 33.5368C20.1995 33.8802 20.9671 33.8802 21.6494 33.5368L26.3405 30.7894L29.5815 28.9006L34.2726 26.1532C34.8696 25.8098 35.6372 25.8098 36.3196 26.1532L39.9871 28.2996C40.5842 28.643 41.0106 29.3298 41.0106 30.1025V34.3953C41.0106 35.0822 40.6695 35.769 39.9871 36.1983L36.4049 38.3447C35.8078 38.6881 35.0402 38.6881 34.3579 38.3447L30.6903 36.1983C30.0933 35.8549 29.6668 35.168 29.6668 34.3953V31.6479L26.4258 33.5368V36.37C26.4258 37.0568 26.7669 37.7437 27.4493 38.173L34.3579 42.2082C34.9549 42.5516 35.7225 42.5516 36.4049 42.2082L43.3135 38.173C43.9105 37.8295 44.337 37.1427 44.337 36.37V28.2137C44.337 27.5269 43.9958 26.84 43.3135 26.4107L36.4049 22.3755Z"
    fill="white" />
</svg>