<svg viewBox="0 0 170 40" fill="none" xmlns="http://www.w3.org/2000/svg">
  <path
    d="M34.8415 12.3142L13.5408 0L10.8853 1.52866V4.6143L8.22974 3.08563L5.57421 4.6143V7.67162L2.91868 6.14296L0.263153 7.67162V32.3001L2.91868 33.8287L5.57421 32.3001V35.3857L8.22974 36.9144L10.8853 35.3857V38.4713L13.5408 40L34.8415 27.6858V24.6001L32.186 23.0715L34.8415 21.5428V18.4572L32.186 16.9285L34.8415 15.3999V12.3142ZM5.57421 29.2427L2.91868 30.7714V9.22859L5.57421 10.7573V29.2427ZM13.5408 30.7714V27.6858L24.1912 21.5145L26.8467 23.0432L13.5408 30.7714ZM21.5356 20.0142L13.5408 24.6284V15.3999L21.5356 20.0142ZM24.1912 18.4572L13.5408 12.2859V9.20028L26.8467 16.9002L24.1912 18.4572ZM8.22974 6.14296L10.8853 7.67162V10.7573L8.22974 9.22859V6.14296ZM8.22974 12.3142L10.8853 13.8429V26.1571L8.22974 27.6858V12.3142ZM8.22974 30.7714L10.8853 29.2427V32.3284L8.22974 33.857V30.7714ZM32.186 26.1571L13.5691 36.9427V33.857L29.5305 24.6284L32.186 26.1571ZM32.186 20.0142L29.5305 21.5428L26.875 20.0142L29.5305 18.4855L32.186 20.0142ZM29.5022 15.3716L13.5408 6.14296V3.05733L32.1578 13.8429L29.5022 15.3716Z"
    fill="currentColor" />
  <path
    d="M45.8874 30.7723H42.8081V9.22948H52.1872C56.4812 9.22948 59.1085 11.8339 59.1085 15.6838C59.1085 19.5338 56.5095 22.1382 52.1872 22.1382H45.8874V30.7723ZM56.0292 15.6838C56.0292 13.5324 54.7862 11.8339 52.1872 11.8339H45.8874V19.5338H52.1872C54.8145 19.5338 56.0292 17.8353 56.0292 15.6838ZM60.2385 18.911C60.5493 16.3632 62.6963 14.2967 67.0186 14.2967C69.6741 14.2967 71.9059 15.0044 73.0359 16.9011C73.5162 17.7221 73.7987 18.8544 73.7987 20.1283V30.744H70.8606V28.7341C69.9284 29.9797 68.0921 31.1969 65.4931 31.1969C62.2443 31.1969 59.4758 29.4984 59.4758 25.9598C59.4758 23.1856 61.3403 21.2323 65.3518 20.8643L70.8889 20.4114V20.1C70.8889 17.9485 69.9566 16.5614 67.0469 16.5614C64.7021 16.5614 63.4591 17.4956 63.2896 18.8827L60.2385 18.911ZM70.8889 23.8367V22.5911L65.6626 23.0441C63.5156 23.2139 62.4421 24.2896 62.4421 25.9598C62.4421 28.1113 63.9676 28.8756 65.8321 28.8756C68.5724 28.9322 70.8889 27.0922 70.8889 23.8367ZM82.9235 17.2408C80.7765 17.2408 79.3922 18.4864 79.3922 21.2323V30.7723H76.4542V14.7497H79.3922V16.5897C80.155 15.2026 81.398 14.4383 83.6863 14.4383H84.5056V17.2125L82.9235 17.2408ZM85.4096 18.911C85.7203 16.3632 87.8673 14.2967 92.1896 14.2967C94.8452 14.2967 97.0769 15.0044 98.207 16.9011C98.6872 17.7221 98.9697 18.8544 98.9697 20.1283V30.744H96.0317V28.7341C95.0994 29.9797 93.2632 31.1969 90.6641 31.1969C87.4153 31.1969 84.6468 29.4984 84.6468 25.9598C84.6468 23.1856 86.5113 21.2323 90.5229 20.8643L96.0599 20.4114V20.1C96.0599 17.9485 95.1277 16.5614 92.2179 16.5614C89.8731 16.5614 88.6301 17.4956 88.4606 18.8827L85.4096 18.911ZM96.0317 23.8367V22.5911L90.8054 23.0441C88.6584 23.2139 87.5848 24.2896 87.5848 25.9598C87.5848 28.1113 89.1104 28.8756 90.9749 28.8756C93.7434 28.9322 96.0317 27.0922 96.0317 23.8367ZM113.49 28.6208C112.558 30.1495 110.722 31.2252 108.264 31.2252C103.462 31.2252 100.862 27.3753 100.862 22.761C100.862 18.1467 103.462 14.2967 108.264 14.2967C110.722 14.2967 112.558 15.3724 113.49 16.9011V9.20117H116.457V30.744H113.519L113.49 28.6208ZM108.744 16.7596C105.524 16.7596 103.829 19.3639 103.829 22.761C103.829 26.158 105.524 28.7624 108.744 28.7624C111.965 28.7624 113.66 25.9881 113.66 22.761C113.66 19.5338 111.965 16.7596 108.744 16.7596ZM127.813 28.3095V30.7723H118.349V28.3095H121.598V17.2125H118.349V14.7497H124.565V28.3095H127.813ZM124.565 12.3151H121.626V9.22948H124.565V12.3151ZM140.243 28.3095C139.622 29.2436 137.927 30.6308 135.158 30.6308C130.667 30.6308 127.757 26.9223 127.757 22.4779C127.757 18.0334 130.667 14.325 135.158 14.325C137.927 14.325 139.622 15.7121 140.243 16.6463V14.7497H143.181V29.0738C143.181 34.1693 140.272 36.7737 135.61 36.7737C132.051 36.7737 129.424 34.9337 128.83 32.1594H131.91C132.192 33.2635 133.322 34.4807 135.639 34.4807C139.029 34.4807 140.243 32.3293 140.243 29.1021V28.3095ZM135.469 16.7596C132.559 16.7596 130.695 19.364 130.695 22.4496C130.695 25.5352 132.531 28.1396 135.469 28.1396C138.548 28.1396 140.385 25.5352 140.385 22.4496C140.385 19.3923 138.548 16.7596 135.469 16.7596ZM148.832 16.618C149.764 14.9195 151.6 14.2967 153.436 14.2967C155.583 14.2967 157.589 15.2309 158.521 17.071C159.454 15.3724 161.12 14.2967 163.889 14.2967C167.279 14.2967 169.737 16.3066 169.737 20.2981V30.7723H166.799V20.7794C166.799 18.175 165.725 16.7879 163.296 16.7879C161.29 16.7879 159.312 18.0334 159.312 21.2606V30.8006H156.374V20.8077C156.374 18.2033 155.301 16.8162 152.871 16.8162C150.866 16.8162 148.888 18.0618 148.888 21.2889V30.8289H145.95V14.8063H148.888L148.832 16.618Z"
    fill="currentColor" />
</svg>