<svg viewBox="0 0 49 48" fill="none" xmlns="http://www.w3.org/2000/svg">
  <mask id="path-1-outside-1_734_4323" maskUnits="userSpaceOnUse" x="-1" y="-1" width="50" height="50" fill="black">
    <rect fill="white" x="-1" y="-1" width="50" height="50" />
    <path
      d="M43.3971 28.8381C40.726 39.5525 29.8741 46.0731 19.1584 43.4012C8.44722 40.7301 1.92665 29.8775 4.59897 19.1639C7.26894 8.44838 18.1209 1.92732 28.8332 4.59847C39.5481 7.26961 46.0683 18.1234 43.3968 28.8383L43.397 28.8381H43.3971Z" />
  </mask>
  <path
    d="M43.3971 28.8381C40.726 39.5525 29.8741 46.0731 19.1584 43.4012C8.44722 40.7301 1.92665 29.8775 4.59897 19.1639C7.26894 8.44838 18.1209 1.92732 28.8332 4.59847C39.5481 7.26961 46.0683 18.1234 43.3968 28.8383L43.397 28.8381H43.3971Z"
    fill="#23292F" />
  <path
    d="M43.3971 28.8381L47.2783 29.8057L48.5168 24.8381H43.3971V28.8381ZM19.1584 43.4012L18.1905 47.2824L18.1907 47.2824L19.1584 43.4012ZM4.59897 19.1639L8.48006 20.132L8.4803 20.1311L4.59897 19.1639ZM28.8332 4.59847L27.8654 8.47963L27.8657 8.47968L28.8332 4.59847ZM43.3968 28.8383L39.5157 27.8706L36.0264 41.8656L46.2253 31.6667L43.3968 28.8383ZM43.397 28.8381V24.8381H41.7402L40.5686 26.0097L43.397 28.8381ZM39.5159 27.8705C37.3792 36.4411 28.6984 41.6575 20.1261 39.5201L18.1907 47.2824C31.0497 50.4887 44.0728 42.6639 47.2783 29.8057L39.5159 27.8705ZM20.1263 39.5201C11.5588 37.3835 6.34239 28.7021 8.48006 20.132L0.717885 18.1959C-2.48908 31.0528 5.33568 44.0766 18.1905 47.2824L20.1263 39.5201ZM8.4803 20.1311C10.6161 11.5591 19.2971 6.3431 27.8654 8.47963L29.801 0.717307C16.9447 -2.48845 3.92173 5.33766 0.717642 18.1968L8.4803 20.1311ZM27.8657 8.47968C36.4364 10.6163 41.6528 19.2988 39.5157 27.8706L47.278 29.806C50.4838 16.9481 42.6598 3.92291 29.8008 0.717253L27.8657 8.47968ZM46.2253 31.6667L46.2255 31.6665L40.5686 26.0097L40.5684 26.0099L46.2253 31.6667ZM43.397 32.8381H43.3971V24.8381H43.397V32.8381Z"
    fill="white" mask="url(#path-1-outside-1_734_4323)" />
  <path
    d="M33.8335 12.334H37.8695L29.4703 20.6503C26.4286 23.6603 21.4971 23.6603 18.4532 20.6503L10.0508 12.334H14.09L20.4712 18.6514C22.4058 20.558 25.5129 20.558 27.4474 18.6514L33.8335 12.334Z"
    fill="white" />
  <path
    d="M14.0387 35.4581H10L18.4537 27.0906C21.4954 24.0805 26.4269 24.0805 29.4708 27.0906L37.9245 35.4581H33.8886L27.4528 29.0895C25.5183 27.1828 22.4112 27.1828 20.4766 29.0895L14.0387 35.4581Z"
    fill="white" />
</svg>