<svg viewBox="0 0 40 60" fill="none" xmlns="http://www.w3.org/2000/svg">
  <path opacity="0.4"
    d="M16.0323 17.3416L14.9418 5.01085C14.9418 2.24361 17.2073 0 20.0015 0C22.7957 0 25.0611 2.24361 25.0611 5.01085L23.9706 17.3416C23.9706 19.5125 22.1935 21.2725 20.0015 21.2725C17.8058 21.2725 16.0323 19.5125 16.0323 17.3416"
    fill="currentColor" />
  <path
    d="M16.2328 58.749C16.0382 58.5563 15.2157 57.8363 14.5328 57.16C10.2552 53.2146 3.26051 42.9129 1.11988 37.5238C0.77841 36.7057 0.0514044 34.6366 0 33.5275C0 32.4693 0.246007 31.4585 0.730677 30.4948C1.40995 29.2912 2.4821 28.3312 3.74518 27.8003C4.61906 27.4621 7.24435 26.9312 7.29209 26.9312C10.1597 26.404 14.8228 26.1167 19.978 26.1167C24.8834 26.1167 29.3556 26.404 32.271 26.8367C32.3224 26.884 35.5792 27.4149 36.6954 27.993C38.7369 29.0512 40 31.1203 40 33.3348V33.5275C39.9523 34.9711 38.6855 38.0038 38.6415 38.0038C36.5008 43.1056 29.844 53.1636 25.4195 57.2072C25.4195 57.2072 24.2813 58.349 23.5726 58.8436C22.5519 59.6145 21.2888 59.9999 20.0257 59.9999C18.6158 59.9999 17.3049 59.5672 16.2328 58.749"
    fill="currentColor" />
</svg>