<svg viewBox="0 0 12 12" fill="none" xmlns="http://www.w3.org/2000/svg">
  <path
    d="M6 12C5.60417 12 5.23958 11.9011 4.90625 11.7031C4.58333 11.5156 4.32292 11.2604 4.125 10.9375C3.9375 10.6042 3.84375 10.2396 3.84375 9.84372C3.84375 9.34374 3.95833 8.9271 4.1875 8.59374C4.41667 8.26044 4.77083 7.86978 5.25 7.42188C5.60417 7.09896 5.78125 6.79164 5.78125 6.49998V6.21876H5.5C5.17708 6.21876 4.73437 6.54168 4.17187 7.18752C3.61979 7.83336 2.94791 8.15622 2.15625 8.15622C1.76042 8.15622 1.39583 8.0625 1.0625 7.875C0.739584 7.67706 0.479167 7.41666 0.28125 7.09374C0.09375 6.76044 0 6.39582 0 6C0 5.60417 0.09375 5.24479 0.28125 4.92187C0.479167 4.58854 0.739584 4.32812 1.0625 4.14062C1.39583 3.94271 1.76042 3.84375 2.15625 3.84375C2.9375 3.84375 3.60416 4.16146 4.15625 4.79687C4.70833 5.43229 5.15625 5.75 5.5 5.75H5.78125V5.5C5.78125 5.20833 5.60417 4.90104 5.25 4.57813L4.89062 4.25C4.63021 4.01042 4.39063 3.72396 4.17187 3.39062C3.95312 3.04687 3.84375 2.63542 3.84375 2.15625C3.84375 1.76042 3.9375 1.40104 4.125 1.07813C4.32292 0.744792 4.58333 0.484375 4.90625 0.296875C5.23958 0.098958 5.60417 0 6 0C6.39582 0 6.75522 0.098958 7.07814 0.296875C7.41144 0.494791 7.6719 0.755208 7.8594 1.07813C8.05728 1.40104 8.15622 1.76042 8.15622 2.15625C8.15622 2.9375 7.83852 3.60416 7.20312 4.15625C6.56772 4.70833 6.25002 5.15625 6.25002 5.5V5.75H6.49998C6.85416 5.75 7.30206 5.43229 7.84374 4.79687C8.37498 4.16146 9.04164 3.84375 9.84378 3.84375C10.2396 3.84375 10.5989 3.94271 10.9219 4.14062C11.2552 4.32812 11.5156 4.58333 11.7031 4.90625C11.9011 5.22917 12 5.59375 12 6C12 6.39582 11.9011 6.76044 11.7031 7.09374C11.5156 7.41666 11.2552 7.67706 10.9219 7.875C10.5989 8.0625 10.2396 8.15622 9.84378 8.15622C9.35418 8.15622 8.93232 8.03646 8.57814 7.79688C8.2344 7.5573 7.84896 7.20834 7.42188 6.75C7.09896 6.39582 6.79164 6.21876 6.49998 6.21876H6.25002V6.49998C6.25002 6.88542 6.56772 7.33332 7.20312 7.84374C7.83852 8.35416 8.15622 9.02082 8.15622 9.84372C8.15622 10.2396 8.05728 10.6042 7.8594 10.9375C7.6719 11.2604 7.41666 11.5156 7.09374 11.7031C6.77082 11.9011 6.40626 12 6 12Z"
    fill="currentColor" />
</svg>