<svg viewBox="0 0 68 68" fill="none" xmlns="http://www.w3.org/2000/svg">
  <path fill-rule="evenodd" clip-rule="evenodd"
    d="M44.8093 9.79203C44.8093 17.1953 50.8197 23.1969 58.2339 23.1969C59.0502 23.1929 59.8646 23.1145 60.6667 22.9628V49.5384C60.6667 60.7189 54.0717 67.3335 42.8748 67.3335H18.4879C7.2617 67.3335 0.666687 60.7189 0.666687 49.5384V25.1872C0.666687 14.0067 7.2617 7.3335 18.4879 7.3335H45.0438C44.8862 8.14351 44.8077 8.96688 44.8093 9.79203ZM37.8308 43.6555L47.3569 31.3628V31.3042C48.1724 30.2084 47.9644 28.6632 46.8879 27.8213C46.3669 27.4191 45.7049 27.245 45.0531 27.3388C44.4012 27.4326 43.8153 27.7862 43.4292 28.3189L35.398 38.6506L26.2529 31.4506C25.7307 31.0438 25.0665 30.8642 24.4102 30.9523C23.7539 31.0405 23.1608 31.3889 22.7648 31.9189L12.9163 44.6213C12.5701 45.0528 12.3837 45.5904 12.3887 46.1433C12.3315 47.2606 13.0371 48.2756 14.1055 48.6129C15.1738 48.9501 16.3355 48.5245 16.9319 47.5774L25.1683 36.9238L34.3134 44.0945C34.8336 44.5138 35.5022 44.7039 36.1655 44.6212C36.8289 44.5384 37.43 44.1898 37.8308 43.6555Z"
    fill="#121315" />
  <ellipse opacity="0.4" cx="59" cy="9.00008" rx="8.33334" ry="8.33333" fill="#121315" />
</svg>