<svg viewBox="0 0 44 44" fill="none" xmlns="http://www.w3.org/2000/svg">
  <path
    d="M13.3333 14.6667V7.33332M41.3333 7.33332V18C41.3333 19.153 40.0788 20.2084 38 21.0227M41.3333 7.33332C41.3333 9.91065 35.0653 12 27.3333 12C19.6014 12 13.3333 9.91065 13.3333 7.33332M41.3333 7.33332C41.3333 4.75599 35.0653 2.66666 27.3333 2.66666C19.6014 2.66666 13.3333 4.75599 13.3333 7.33332"
    stroke="currentColor" stroke-width="4" stroke-linecap="round" stroke-linejoin="round" />
  <path
    d="M30.6667 26V36.6667C30.6667 39.244 24.3986 41.3333 16.6667 41.3333C8.93467 41.3333 2.66666 39.244 2.66666 36.6667V26M30.6667 26C30.6667 28.5773 24.3986 30.6667 16.6667 30.6667C8.93467 30.6667 2.66666 28.5773 2.66666 26M30.6667 26C30.6667 23.4227 24.3986 21.3333 16.6667 21.3333C8.93467 21.3333 2.66666 23.4227 2.66666 26"
    stroke="currentColor" stroke-width="4" stroke-linecap="round" stroke-linejoin="round" />
</svg>