<svg viewBox="0 0 148 48" fill="none" xmlns="http://www.w3.org/2000/svg">
  <path
    d="M140.572 0H6.85714C3.07005 0 0 3.07005 0 6.85714V41.1429C0 44.93 3.07005 48 6.85714 48H140.572C144.359 48 147.429 44.93 147.429 41.1429V6.85714C147.429 3.07005 144.359 0 140.572 0Z"
    fill="black" />
  <path fill-rule="evenodd" clip-rule="evenodd"
    d="M89.6787 33.6456C87.7719 33.6456 86.3765 32.71 86.2159 31.285L83.9969 31.2849C84.137 33.884 86.3058 35.5282 89.5181 35.5282C92.9513 35.5282 95.1098 33.8444 95.1098 31.1561C95.1098 29.0543 93.875 27.87 90.9032 27.1728L89.3073 26.784C87.4404 26.3264 86.6772 25.7286 86.6772 24.7128C86.6772 23.4381 87.8721 22.5623 89.6183 22.5623C91.3645 22.5623 92.5594 23.4279 92.6904 24.8619H94.8786C94.808 22.3826 92.7098 20.6797 89.6491 20.6797C86.5565 20.6797 84.3785 22.3826 84.3785 24.8619C84.3785 26.8643 85.6133 28.0983 88.2731 28.7356L90.1503 29.1843C92.0275 29.6419 92.8203 30.3098 92.8203 31.4251C92.8203 32.7099 91.5058 33.6456 89.6787 33.6456ZM51.9141 31.4048H46.3929L45.067 35.2887H42.7285L47.958 20.9193H50.3877L55.6172 35.2887H53.2388L51.9141 31.4048ZM46.964 29.6126H51.3404L49.183 23.3093H49.1226L46.964 29.6126ZM62.504 35.3983C65.1546 35.3983 66.9111 33.3066 66.9111 30.051C66.9111 26.8045 65.1443 24.7026 62.4641 24.7026C61.0849 24.6585 59.793 25.3701 59.1015 26.5547H59.0617V24.8123H56.9634V38.7545H59.1311V33.5654H59.1813C59.8433 34.7575 61.1339 35.4694 62.504 35.3983ZM64.6824 30.051C64.6824 27.93 63.5775 26.5355 61.8916 26.5355C60.2354 26.5355 59.1214 27.9593 59.1214 30.051C59.1214 32.1619 60.2354 33.5756 61.8916 33.5756C63.5775 33.5756 64.6824 32.1913 64.6824 30.051ZM74.1273 35.3983C76.7779 35.3983 78.5344 33.3066 78.5344 30.051C78.5344 26.8045 76.7677 24.7026 74.0874 24.7026C72.7082 24.6585 71.4163 25.3701 70.7248 26.5547H70.6849V24.8122H68.5868V38.7544H70.7544V33.5654H70.8046C71.4666 34.7575 72.7572 35.4694 74.1273 35.3983ZM76.3057 30.051C76.3057 27.93 75.2008 26.5355 73.5149 26.5355C71.8587 26.5355 70.7447 27.9593 70.7447 30.051C70.7447 32.1619 71.8587 33.5756 73.5149 33.5756C75.2008 33.5756 76.3057 32.1913 76.3057 30.051ZM99.789 22.333V24.8123H101.798V26.5152H99.789V32.2907C99.789 33.188 100.192 33.6061 101.074 33.6061C101.313 33.602 101.551 33.5854 101.787 33.5563V35.2491C101.39 35.3227 100.987 35.356 100.583 35.3486C98.4449 35.3486 97.6111 34.5519 97.6111 32.5201V26.5152H96.0756V24.8123H97.6111V22.333H99.789ZM107.968 24.6834C104.917 24.6834 102.96 26.7548 102.96 30.051C102.96 33.3563 104.897 35.4186 107.968 35.4186C111.041 35.4186 112.978 33.3564 112.978 30.051C112.978 26.7547 111.03 24.6834 107.968 24.6834ZM110.771 30.051C110.771 27.7898 109.726 26.4553 107.97 26.4553C106.213 26.4553 105.17 27.8 105.17 30.051C105.17 32.3212 106.213 33.6456 107.97 33.6456C109.726 33.6456 110.771 32.3212 110.771 30.051ZM116.833 24.8123H114.766V35.2887H116.933V29.0747C116.861 28.446 117.07 27.8175 117.504 27.3541C117.938 26.8907 118.555 26.6387 119.192 26.6644C119.522 26.6548 119.851 26.6987 120.166 26.7943V24.7829C119.922 24.7287 119.673 24.7018 119.423 24.7026C118.232 24.6575 117.172 25.4475 116.883 26.5954H116.833V24.8123ZM130.16 32.2116C129.868 34.1135 128.001 35.4186 125.612 35.4186C122.54 35.4186 120.633 33.3767 120.633 30.1008C120.633 26.8147 122.551 24.6834 125.521 24.6834C128.443 24.6834 130.28 26.6745 130.28 29.851V30.5878H122.822V30.7177C122.752 31.4977 123.024 32.2697 123.567 32.8375C124.111 33.4052 124.874 33.714 125.663 33.6852C126.714 33.783 127.706 33.1837 128.101 32.2116H130.16ZM128.113 29.0849H122.833C122.831 28.3776 123.114 27.6988 123.619 27.1995C124.125 26.7002 124.81 26.4217 125.523 26.4259C126.23 26.4108 126.912 26.6892 127.403 27.1939C127.895 27.6987 128.152 28.384 128.113 29.0849Z"
    fill="white" />
  <path fill-rule="evenodd" clip-rule="evenodd"
    d="M71.4992 9.7627H72.5357V17.0073H71.4992V9.7627ZM49.1477 11.0492C48.5133 10.3847 47.6119 10.0373 46.6917 10.1028H44.1777V17.0073H46.6917C48.7648 17.0073 49.9666 15.7394 49.9666 13.5336C50.0826 12.6256 49.7821 11.7138 49.1477 11.0492ZM46.5714 16.031H45.2592V11.0786H46.5714C47.2256 11.0426 47.8618 11.2985 48.3059 11.7763C48.7501 12.2541 48.9557 12.9038 48.8667 13.5477C48.9627 14.1943 48.76 14.8495 48.3147 15.3312C47.8695 15.8129 47.2291 16.07 46.5714 16.031ZM51.1873 14.3998C51.0972 13.4659 51.5486 12.562 52.3522 12.0673C53.1558 11.5726 54.1726 11.5726 54.9762 12.0673C55.7798 12.562 56.2312 13.4659 56.1411 14.3998C56.2329 15.3348 55.7819 16.2404 54.9776 16.7361C54.1733 17.2319 53.1551 17.2319 52.3508 16.7361C51.5465 16.2404 51.0955 15.3348 51.1873 14.3998ZM53.6665 12.6098C54.5641 12.6098 55.0756 13.2703 55.0756 14.3998C55.0756 15.5337 54.5641 16.1937 53.6665 16.1937C52.7656 16.1937 52.2587 15.5383 52.2587 14.3998C52.2587 13.2703 52.7655 12.6098 53.6665 12.6098ZM62.7259 17.0073H61.6506L60.5651 13.1697H60.4831L59.4021 17.0073H58.337L56.8892 11.7967H57.9406L58.8815 15.7727H58.959L60.0388 11.7967H61.0332L62.1131 15.7727H62.1951L63.1314 11.7967H64.168L62.7259 17.0073ZM66.3848 11.7968H65.387V17.0073H66.4236V13.9591C66.3864 13.6123 66.5037 13.2667 66.7448 13.0129C66.9858 12.7591 67.3266 12.6224 67.6777 12.6387C68.4443 12.6387 68.8111 13.0551 68.8111 13.8924V17.0073H69.8477V13.6342C69.9236 13.1247 69.762 12.6086 69.4083 12.2316C69.0547 11.8546 68.5474 11.6576 68.0297 11.6962C67.3611 11.6423 66.7317 12.0151 66.4623 12.6245H66.3848V11.7968ZM75.142 12.0672C74.3384 12.5619 73.8869 13.4658 73.9769 14.3998C73.8852 15.3348 74.3363 16.2404 75.1406 16.7361C75.945 17.2318 76.9632 17.2318 77.7675 16.7361C78.5719 16.2404 79.023 15.3348 78.9313 14.3998C79.0213 13.4658 78.5698 12.5619 77.7662 12.0672C76.9625 11.5725 75.9457 11.5725 75.142 12.0672ZM77.8635 14.3998C77.8635 13.2703 77.3521 12.6098 76.4545 12.6098C75.5535 12.6098 75.0466 13.2703 75.0466 14.3998C75.0466 15.5383 75.5535 16.1937 76.4545 16.1937C77.3521 16.1937 77.8635 15.5337 77.8635 14.3998ZM81.9756 13.9782C80.726 14.0551 80.0221 14.5958 80.0221 15.5337C80.0238 15.9784 80.2151 16.4017 80.5487 16.6988C80.8823 16.9959 81.3269 17.1391 81.7728 17.0931C82.4089 17.1223 83.0116 16.8098 83.3505 16.275H83.4325V17.0073H84.4303V13.4471C84.4303 12.3465 83.6876 11.6962 82.3708 11.6962C81.1794 11.6962 80.3307 12.2702 80.2248 13.1652H81.2283C81.3434 12.7968 81.7444 12.5861 82.323 12.5861C83.0315 12.5861 83.3983 12.8968 83.3983 13.4471V13.8969L81.9756 13.9782ZM83.3973 15.0885V14.6529L82.1147 14.7342C81.3914 14.7822 81.0633 15.0263 81.0633 15.4857C81.0633 15.9546 81.4734 16.2275 82.0373 16.2275C82.3711 16.2611 82.7044 16.1587 82.9607 15.944C83.2171 15.7293 83.3747 15.4206 83.3973 15.0885ZM87.9729 11.7103C86.6459 11.7103 85.7927 12.7533 85.7927 14.3997C85.7927 16.0501 86.6368 17.0932 87.9729 17.0931C88.6503 17.1179 89.2857 16.7677 89.6223 16.184H89.7043V17.0073H90.6976V9.7627H89.661V12.6244H89.5836C89.2706 12.0359 88.643 11.6797 87.9729 11.7103ZM86.8625 14.3998C86.8625 15.5049 87.3876 16.1699 88.2658 16.1699C89.1395 16.1699 89.6794 15.4953 89.6794 14.4043C89.6794 13.3183 89.1338 12.6341 88.2658 12.6341C87.3933 12.6341 86.8625 13.3036 86.8625 14.3998ZM96.1502 12.0673C95.3466 12.562 94.8952 13.4659 94.9853 14.3998C94.8935 15.3348 95.3445 16.2404 96.1488 16.7361C96.9531 17.2319 97.9713 17.2319 98.7756 16.7361C99.5799 16.2404 100.031 15.3348 99.9391 14.3998C100.029 13.4659 99.5778 12.562 98.7742 12.0673C97.9706 11.5726 96.9538 11.5726 96.1502 12.0673ZM98.8736 14.3998C98.8736 13.2703 98.3621 12.6098 97.4645 12.6098C96.5635 12.6098 96.0567 13.2703 96.0567 14.3998C96.0567 15.5383 96.5635 16.1937 97.4645 16.1937C98.3621 16.1937 98.8736 15.5337 98.8736 14.3998ZM102.328 11.7968H101.33V17.0073H102.366V13.9591C102.329 13.6123 102.446 13.2667 102.687 13.0129C102.928 12.7591 103.269 12.6224 103.62 12.6387C104.387 12.6387 104.754 13.0551 104.754 13.8924V17.0073H105.79V13.6342C105.866 13.1247 105.705 12.6086 105.351 12.2316C104.997 11.8546 104.49 11.6576 103.972 11.6962C103.304 11.6423 102.674 12.0151 102.405 12.6245H102.328V11.7968ZM111.649 10.4995V11.8205H112.787V12.6867H111.649V15.3659C111.649 15.9117 111.875 16.1507 112.391 16.1507C112.524 16.1503 112.656 16.1424 112.787 16.127V16.9836C112.601 17.0166 112.412 17.0342 112.223 17.0361C111.07 17.0361 110.611 16.6338 110.611 15.6292V12.6866H109.777V11.8204H110.611V10.4995H111.649ZM115.229 9.7627H114.202V17.0072H115.239V13.9641C115.206 13.6066 115.335 13.2532 115.59 12.9985C115.845 12.7438 116.2 12.6138 116.561 12.6431C117.293 12.6431 117.684 13.0646 117.684 13.8969V17.0073H118.722V13.6432C118.79 13.1363 118.628 12.6255 118.278 12.2499C117.928 11.8742 117.428 11.6729 116.913 11.7007C116.234 11.646 115.594 12.0193 115.311 12.6341H115.229V9.7627ZM124.766 15.6004C124.475 16.5832 123.516 17.2183 122.49 17.1078C121.789 17.1262 121.116 16.8382 120.649 16.3203C120.182 15.8024 119.968 15.1069 120.064 14.4184C119.97 13.728 120.184 13.0314 120.648 12.5091C121.113 11.9868 121.783 11.6902 122.485 11.6962C123.947 11.6962 124.828 12.6867 124.828 14.3229V14.6817H121.12V14.7393C121.087 15.126 121.22 15.5084 121.486 15.7926C121.752 16.0768 122.127 16.2363 122.518 16.232C123.025 16.2924 123.519 16.0429 123.768 15.6003L124.766 15.6004ZM123.772 13.9211H121.119C121.115 13.5618 121.256 13.2159 121.513 12.9617C121.769 12.7076 122.117 12.5668 122.479 12.5713C122.837 12.5632 123.181 12.7052 123.427 12.9622C123.673 13.2193 123.799 13.5675 123.772 13.9211Z"
    fill="white" />
  <path fill-rule="evenodd" clip-rule="evenodd"
    d="M29.5774 10.0908C29.6903 11.5537 29.224 13.0027 28.2774 14.13C27.359 15.2631 25.9675 15.9158 24.5019 15.9008C24.4087 14.4801 24.8887 13.0808 25.836 12.0112C26.7954 10.9272 28.1312 10.2415 29.5774 10.0908ZM34.2118 18.6865C32.5259 19.7147 31.4885 21.5279 31.463 23.491C31.4654 25.712 32.8062 27.7163 34.8681 28.5815C34.4715 29.8594 33.8738 31.0672 33.097 32.1599C32.0537 33.7081 30.9599 35.2206 29.2239 35.2485C28.3982 35.2674 27.8408 35.0319 27.2601 34.7865C26.6543 34.5304 26.023 34.2637 25.0352 34.2637C23.9876 34.2637 23.3281 34.539 22.692 34.8046C22.1423 35.0341 21.6102 35.2563 20.8602 35.2871C19.2068 35.3479 17.9432 33.6348 16.8621 32.1012C14.7012 28.9693 13.0185 23.2749 15.2744 19.4003C16.3337 17.5119 18.3143 16.3135 20.4917 16.2438C21.4294 16.2246 22.3292 16.5832 23.118 16.8975C23.7214 17.1379 24.2598 17.3525 24.7007 17.3525C25.0883 17.3525 25.6117 17.1464 26.2217 16.9062C27.1826 16.5279 28.3583 16.065 29.5564 16.1897C31.4181 16.2475 33.1434 17.1728 34.2118 18.6865Z"
    fill="white" />
</svg>