<svg viewBox="0 0 153 48" fill="none" xmlns="http://www.w3.org/2000/svg">
  <path
    d="M145.738 0H7.12179C3.42584 0 0.429688 2.99616 0.429688 6.6921V41.3079C0.429688 45.0038 3.42584 48 7.12179 48H145.738C149.434 48 152.43 45.0038 152.43 41.3079V6.6921C152.43 2.99616 149.434 0 145.738 0Z"
    fill="black" />
  <path fill-rule="evenodd" clip-rule="evenodd"
    d="M56.3837 27.6036V29.42H60.7928C60.7236 30.2756 60.3639 31.0828 59.7721 31.7107C58.8801 32.609 57.6457 33.0928 56.3735 33.0427C53.6678 33.0427 51.4745 30.8741 51.4745 28.199C51.4745 25.5239 53.6678 23.3553 56.3735 23.3553C57.6164 23.3353 58.8166 23.8034 59.7109 24.6571L61.0071 23.3755C59.7874 22.1543 58.1195 21.4736 56.3837 21.4885C53.9127 21.3934 51.5872 22.6426 50.3231 24.7439C49.059 26.8452 49.059 29.462 50.3231 31.5633C51.5872 33.6647 53.9127 34.9138 56.3837 34.8187C58.1512 34.8977 59.8668 34.217 61.0887 32.9519C62.158 31.7903 62.7289 30.2634 62.6809 28.6935C62.6842 28.311 62.65 27.9291 62.5789 27.5532L56.3837 27.6036ZM67.7029 26.2818C65.3086 26.2874 63.3717 28.2099 63.3754 30.5772C63.3792 32.9445 65.3222 34.861 67.7165 34.8592C70.1107 34.8573 72.0507 32.9377 72.0507 30.5705C72.0675 29.4245 71.6131 28.3209 70.7915 27.5124C69.97 26.7039 68.8516 26.2598 67.6927 26.2818H67.7029ZM72.8875 30.5839C72.88 28.2179 74.8118 26.2929 77.2047 26.2818C78.3637 26.2598 79.482 26.7039 80.3036 27.5124C81.1252 28.3209 81.5796 29.4245 81.5628 30.5705C81.5628 32.9364 79.6249 34.8554 77.2319 34.8591C74.839 34.8628 72.895 32.9498 72.8875 30.5839ZM74.6446 31.699C75.1107 32.6636 76.1257 33.2484 77.2043 33.1739C77.8813 33.1583 78.5232 32.8731 78.9844 32.3829C79.4456 31.8927 79.687 31.2391 79.6538 30.5704C79.6512 29.5014 78.9879 28.5426 77.9812 28.1526C76.9745 27.7627 75.829 28.0208 75.0926 28.8035C74.3562 29.5862 74.1785 30.7344 74.6446 31.699ZM65.1359 31.7067C65.6053 32.6707 66.6233 33.2526 67.7024 33.1739H67.6922C68.3692 33.1583 69.0111 32.8731 69.4723 32.3829C69.9336 31.8927 70.1749 31.2391 70.1417 30.5704C70.1388 29.5005 69.4742 28.5413 68.4662 28.1522C67.4583 27.7631 66.3122 28.0233 65.5768 28.8082C64.8415 29.593 64.6666 30.7427 65.1359 31.7067ZM98.9136 26.2819C100.606 26.3435 102.084 27.4315 102.629 29.0166L102.843 29.4707L97.0356 31.8421C97.3996 32.6617 98.2334 33.1779 99.1381 33.1438C100.012 33.146 100.822 32.6937 101.271 31.9531L102.751 32.9622C101.946 34.1544 100.588 34.867 99.1381 34.8593C97.9854 34.876 96.8753 34.4286 96.063 33.6197C95.2507 32.8109 94.806 31.7102 94.8311 30.5706C94.7605 29.4571 95.1593 28.3644 95.9327 27.5519C96.7061 26.7395 97.7851 26.2798 98.9136 26.2819ZM96.7087 30.4494C96.6669 29.8189 96.8836 29.1983 97.3098 28.7275C97.7361 28.2567 98.336 27.9753 98.9745 27.9468C99.6474 27.903 100.282 28.2603 100.587 28.855L96.7087 30.4494ZM93.9019 34.6069H91.9933V21.9931H93.9019V34.6069ZM88.8699 27.2406H88.7985C88.2167 26.5975 87.385 26.2304 86.5123 26.2315C84.1957 26.3426 82.3751 28.232 82.3751 30.5252C82.3751 32.8184 84.1957 34.7079 86.5123 34.819C87.3878 34.8335 88.2249 34.464 88.7985 33.8099H88.8597V34.4254C88.8597 36.0703 87.9718 36.9482 86.5429 36.9482C85.5696 36.9256 84.7066 36.3236 84.3588 35.4244L82.6952 36.1106C83.3358 37.6513 84.8581 38.6534 86.5429 38.6435C88.7781 38.6435 90.6254 37.3417 90.6254 34.1731V26.5342H88.8699V27.2406ZM86.6834 33.1737L86.6865 33.174H86.6763L86.6834 33.1737ZM88.4032 32.3645C87.9652 32.8545 87.344 33.1467 86.6834 33.1737C85.3202 33.0533 84.2752 31.924 84.2752 30.5705C84.2752 29.216 85.3218 28.0859 86.6865 27.967C87.346 28.0005 87.9638 28.2957 88.4 28.7859C88.8362 29.276 89.0537 29.9195 89.0033 30.5705C89.0596 31.2244 88.8427 31.8727 88.4032 32.3645ZM111.57 21.9931H107.008V34.6069H108.917V29.8237H111.581C113.063 29.929 114.481 29.2067 115.255 27.9518C116.029 26.697 116.029 25.1199 115.255 23.865C114.481 22.6101 113.063 21.8878 111.581 21.9931H111.57ZM108.905 28.0477H111.569L111.61 28.078C112.819 28.078 113.799 27.1089 113.799 25.9134C113.799 24.718 112.819 23.7489 111.61 23.7489H108.905V28.0477ZM123.336 26.2314C121.916 26.1475 120.581 26.9045 119.938 28.1588L121.632 28.855C121.973 28.2331 122.654 27.869 123.367 27.9267C123.856 27.8702 124.348 28.0104 124.732 28.3159C125.116 28.6214 125.359 29.0665 125.408 29.5513V29.6825C124.795 29.3616 124.112 29.1952 123.418 29.1981C121.591 29.1981 119.744 30.2072 119.744 32.0337C119.78 32.8205 120.137 33.5593 120.733 34.082C121.329 34.6047 122.113 34.8668 122.908 34.8088C123.887 34.8783 124.826 34.4139 125.357 33.5978H125.418V34.6069H127.256V29.7531C127.256 27.5432 125.561 26.2616 123.387 26.2616L123.336 26.2314ZM121.611 32.0739C121.611 32.8308 122.479 33.1436 123.101 33.1436L123.152 33.1739C124.302 33.1461 125.256 32.2853 125.387 31.1556C124.858 30.8634 124.259 30.717 123.652 30.7318C122.693 30.7318 121.611 31.0648 121.611 32.0739ZM133.952 26.5341L131.768 32.0035H131.707L129.441 26.5341H127.4L130.798 34.1832L128.859 38.4315H130.849L136.075 26.5341H133.952ZM118.703 34.6069H116.795V21.9931H118.703V34.6069Z"
    fill="white" />
  <path fill-rule="evenodd" clip-rule="evenodd"
    d="M78.2966 12.1733C77.0925 13.4335 77.0925 15.4037 78.2966 16.6638C79.5387 17.8851 81.5452 17.8851 82.7873 16.6638C83.9965 15.4057 83.9965 13.4314 82.7873 12.1733C82.1933 11.5817 81.3851 11.249 80.5419 11.249C79.6988 11.249 78.8906 11.5817 78.2966 12.1733ZM55.2907 16.6848C55.8146 16.1441 56.0913 15.4146 56.0562 14.6666C56.0562 14.5144 56.0426 14.3624 56.0154 14.2125H53.0454V14.9391H55.2601C55.245 15.3967 55.0638 15.8337 54.7498 16.1702C54.0503 16.8388 53.0126 17.0256 52.1196 16.6437C51.2266 16.2619 50.6536 15.3863 50.6673 14.4245C50.6451 13.7879 50.8861 13.1699 51.3348 12.713C51.7835 12.256 52.4012 11.9995 53.0454 12.0026C53.6862 11.968 54.3062 12.2334 54.7192 12.7191L55.2601 12.1842C54.9988 11.8871 54.67 11.6554 54.3007 11.5081C53.904 11.3403 53.4768 11.2544 53.0454 11.2559C52.1988 11.2372 51.3823 11.566 50.7898 12.1641C49.8779 13.0716 49.6051 14.4311 50.0975 15.6141C50.5899 16.7971 51.7516 17.5729 53.0454 17.583C53.8889 17.6126 54.7053 17.2861 55.2907 16.6848ZM57.9769 12.1433H60.7326V11.3966H57.1604V17.4512H60.7326V16.7045H57.9769V14.7872H60.4876V14.0606H57.9769V12.1433ZM64.0787 17.4512H63.2929V12.1433H61.5782V11.3966H65.8342V12.1433H64.0787V17.4512ZM68.8356 11.3966V17.4512H69.6215V11.3966H68.8356ZM73.1121 17.4512H72.3262V12.1433H70.6116V11.3966H74.8165V12.1433H73.1121V17.4512ZM78.8782 16.1594C79.7981 17.0651 81.2855 17.0651 82.2055 16.1594C83.1089 15.1746 83.1089 13.6727 82.2055 12.688C81.2855 11.7823 79.7981 11.7823 78.8782 12.688C77.9748 13.6727 77.9748 15.1746 78.8782 16.1594ZM84.7963 11.3966V17.4512H85.5924V12.5167L88.7053 17.4512H89.5218V11.3966H88.7359V16.1091L85.7557 11.3966H84.7963Z"
    fill="white" />
  <path
    d="M78.2975 16.6647L78.1103 16.8435L78.1161 16.8492L78.2975 16.6647ZM78.2975 12.1742L78.1149 11.9909L78.1104 11.9955L78.2975 12.1742ZM82.7882 16.6647L82.9697 16.8493L82.9747 16.844L82.7882 16.6647ZM82.7882 12.1742L82.9748 11.9949L82.9708 11.9909L82.7882 12.1742ZM56.0571 14.6675L55.7981 14.6674L55.7987 14.6797L56.0571 14.6675ZM55.2916 16.6857L55.477 16.8662L55.4774 16.8658L55.2916 16.6857ZM56.0163 14.2134L56.2708 14.1672L56.2322 13.9547H56.0163V14.2134ZM53.0463 14.2134V13.9547H52.7875V14.2134H53.0463ZM53.0463 14.94H52.7875V15.1987H53.0463V14.94ZM55.261 14.94L55.5196 14.9485L55.5284 14.6813H55.261V14.94ZM54.7507 16.1711L54.9294 16.3581L54.9348 16.353L54.9398 16.3476L54.7507 16.1711ZM52.1205 16.6446L52.2222 16.4068L52.1205 16.6446ZM50.6682 14.4254L50.9272 14.429L50.9268 14.4163L50.6682 14.4254ZM53.0463 12.0035L53.045 12.2622L53.0526 12.2623L53.0602 12.2618L53.0463 12.0035ZM54.7201 12.72L54.523 12.8876L54.7036 13.1L54.902 12.9039L54.7201 12.72ZM55.261 12.1851L55.4429 12.3691L55.6164 12.1975L55.4553 12.0143L55.261 12.1851ZM54.3016 11.509L54.2008 11.7474L54.2058 11.7494L54.3016 11.509ZM53.0463 11.2568L53.0406 11.5155H53.0471L53.0463 11.2568ZM50.7907 12.165L50.9732 12.3483L50.9745 12.347L50.7907 12.165ZM50.0984 15.615L49.8595 15.7144L50.0984 15.615ZM53.0463 17.5839L53.0554 17.3252L53.0483 17.3251L53.0463 17.5839ZM60.7335 12.1442V12.4029H60.9922V12.1442H60.7335ZM57.9778 12.1442V11.8855H57.7191V12.1442H57.9778ZM60.7335 11.3975H60.9922V11.1387H60.7335V11.3975ZM57.1613 11.3975V11.1387H56.9026V11.3975H57.1613ZM57.1613 17.4521H56.9026V17.7108H57.1613V17.4521ZM60.7335 17.4521V17.7108H60.9922V17.4521H60.7335ZM60.7335 16.7054H60.9922V16.4466H60.7335V16.7054ZM57.9778 16.7054H57.7191V16.9641H57.9778V16.7054ZM57.9778 14.7881V14.5293H57.7191V14.7881H57.9778ZM60.4885 14.7881V15.0468H60.7472V14.7881H60.4885ZM60.4885 14.0615H60.7472V13.8028H60.4885V14.0615ZM57.9778 14.0615H57.7191V14.3202H57.9778V14.0615ZM63.2938 17.4521H63.035V17.7108H63.2938V17.4521ZM64.0796 17.4521V17.7108H64.3384V17.4521H64.0796ZM63.2938 12.1442H63.5525V11.8855H63.2938V12.1442ZM61.5791 12.1442H61.3204V12.4029H61.5791V12.1442ZM61.5791 11.3975V11.1387H61.3204V11.3975H61.5791ZM65.8351 11.3975H66.0938V11.1387H65.8351V11.3975ZM65.8351 12.1442V12.4029H66.0938V12.1442H65.8351ZM64.0796 12.1442V11.8855H63.8209V12.1442H64.0796ZM68.8365 17.4521H68.5778V17.7108H68.8365V17.4521ZM68.8365 11.3975V11.1387H68.5778V11.3975H68.8365ZM69.6224 17.4521V17.7108H69.8811V17.4521H69.6224ZM69.6224 11.3975H69.8811V11.1387H69.6224V11.3975ZM72.3271 17.4521H72.0684V17.7108H72.3271V17.4521ZM73.113 17.4521V17.7108H73.3717V17.4521H73.113ZM72.3271 12.1442H72.5858V11.8855H72.3271V12.1442ZM70.6125 12.1442H70.3538V12.4029H70.6125V12.1442ZM70.6125 11.3975V11.1387H70.3538V11.3975H70.6125ZM74.8174 11.3975H75.0761V11.1387H74.8174V11.3975ZM74.8174 12.1442V12.4029H75.0761V12.1442H74.8174ZM73.113 12.1442V11.8855H72.8543V12.1442H73.113ZM82.2064 16.1603L82.3881 16.3448L82.397 16.3352L82.2064 16.1603ZM78.8791 16.1603L78.6882 16.3354L78.6976 16.3446L78.8791 16.1603ZM82.2064 12.6889L82.3972 12.5138L82.3879 12.5046L82.2064 12.6889ZM78.8791 12.6889L78.6974 12.5043L78.6885 12.514L78.8791 12.6889ZM84.7972 17.4521H84.5385V17.7108H84.7972V17.4521ZM84.7972 11.3975V11.1387H84.5385V11.3975H84.7972ZM85.5933 17.4521V17.7108H85.8521V17.4521H85.5933ZM85.5933 12.5176L85.8121 12.3795L85.3346 11.6226V12.5176H85.5933ZM88.7062 17.4521L88.4874 17.5901L88.5635 17.7108H88.7062V17.4521ZM89.5227 17.4521V17.7108H89.7814V17.4521H89.5227ZM89.5227 11.3975H89.7814V11.1387H89.5227V11.3975ZM88.7368 11.3975V11.1387H88.4781V11.3975H88.7368ZM88.7368 16.11L88.5182 16.2483L88.9956 17.0031V16.11H88.7368ZM85.7566 11.3975L85.9753 11.2592L85.8991 11.1387H85.7566V11.3975ZM78.4845 16.486C77.376 15.3259 77.376 13.5131 78.4845 12.3529L78.1104 11.9955C76.8108 13.3556 76.8108 15.4833 78.1104 16.8435L78.4845 16.486ZM82.6068 16.4803C81.4654 17.6025 79.6203 17.6025 78.4789 16.4803L78.1161 16.8492C79.4589 18.1694 81.6268 18.1694 82.9696 16.8492L82.6068 16.4803ZM82.6017 12.3535C83.7146 13.5115 83.7146 15.3275 82.6017 16.4855L82.9747 16.844C84.2802 15.4858 84.2802 13.3532 82.9747 11.9949L82.6017 12.3535ZM80.5428 11.5086C81.318 11.5086 82.0604 11.8145 82.6056 12.3575L82.9708 11.9909C82.328 11.3507 81.454 10.9912 80.5428 10.9912V11.5086ZM78.48 12.3575C79.0252 11.8145 79.7677 11.5086 80.5428 11.5086V10.9912C79.6317 10.9912 78.7577 11.3507 78.1149 11.9909L78.48 12.3575ZM55.7987 14.6797C55.8304 15.3559 55.5803 16.0159 55.1058 16.5057L55.4774 16.8658C56.0507 16.274 56.3539 15.4752 56.3155 14.6554L55.7987 14.6797ZM55.7617 14.2597C55.7862 14.3943 55.7984 14.5307 55.7984 14.6674L56.3158 14.6676C56.3159 14.4998 56.3008 14.3324 56.2708 14.1672L55.7617 14.2597ZM53.0463 14.4722H56.0163V13.9547H53.0463V14.4722ZM53.305 14.94V14.2134H52.7875V14.94H53.305ZM55.261 14.6813H53.0463V15.1987H55.261V14.6813ZM54.9398 16.3476C55.2963 15.9656 55.5024 15.4691 55.5196 14.9485L55.0024 14.9315C54.9894 15.3262 54.8332 15.7036 54.5616 15.9946L54.9398 16.3476ZM52.0188 16.8825C53.0065 17.3049 54.1547 17.0986 54.9294 16.3581L54.5719 15.9841C53.9476 16.5807 53.0204 16.7481 52.2222 16.4068L52.0188 16.8825ZM50.4095 14.4217C50.3943 15.4898 51.0305 16.4599 52.0188 16.8825L52.2222 16.4068C51.4244 16.0656 50.9147 15.2847 50.9269 14.429L50.4095 14.4217ZM51.1511 12.5326C50.653 13.0399 50.3849 13.7265 50.4097 14.4344L50.9268 14.4163C50.907 13.8511 51.121 13.3018 51.5203 12.8951L51.1511 12.5326ZM53.0475 11.7448C52.3339 11.7413 51.6491 12.0254 51.1511 12.5326L51.5203 12.8951C51.9198 12.4883 52.4702 12.2594 53.045 12.2622L53.0475 11.7448ZM54.9172 12.5524C54.4514 12.0047 53.7532 11.7062 53.0323 11.7452L53.0602 12.2618C53.621 12.2315 54.1627 12.4639 54.523 12.8876L54.9172 12.5524ZM55.0791 12.0012L54.5382 12.536L54.902 12.9039L55.4429 12.3691L55.0791 12.0012ZM54.2058 11.7494C54.5375 11.8816 54.8325 12.0896 55.0667 12.356L55.4553 12.0143C55.167 11.6864 54.8044 11.431 54.3975 11.2687L54.2058 11.7494ZM53.0471 11.5155C53.4437 11.5142 53.8363 11.5931 54.2008 11.7473L54.4024 11.2708C53.9735 11.0893 53.5117 10.9965 53.0454 10.9981L53.0471 11.5155ZM50.9745 12.347C51.5167 11.7998 52.2646 11.4983 53.0406 11.5154L53.052 10.9981C52.1349 10.9779 51.2497 11.334 50.6069 11.9829L50.9745 12.347ZM50.3372 15.5156C49.8854 14.4301 50.1353 13.1822 50.9732 12.3483L50.6082 11.9816C49.6222 12.9628 49.3266 14.434 49.8595 15.7144L50.3372 15.5156ZM53.0483 17.3251C51.8569 17.3159 50.7893 16.6016 50.3372 15.5156L49.8595 15.7144C50.3923 16.9944 51.648 17.8318 53.0443 17.8426L53.0483 17.3251ZM55.1063 16.5053C54.5721 17.0539 53.8264 17.3524 53.0554 17.3253L53.0372 17.8424C53.9531 17.8747 54.8404 17.5201 55.477 16.8662L55.1063 16.5053ZM60.7335 11.8855H57.9778V12.4029H60.7335V11.8855ZM60.4747 11.3975V12.1442H60.9922V11.3975H60.4747ZM57.1613 11.6562H60.7335V11.1387H57.1613V11.6562ZM57.42 17.4521V11.3975H56.9026V17.4521H57.42ZM60.7335 17.1934H57.1613V17.7108H60.7335V17.1934ZM60.4747 16.7054V17.4521H60.9922V16.7054H60.4747ZM57.9778 16.9641H60.7335V16.4466H57.9778V16.9641ZM57.7191 14.7881V16.7054H58.2365V14.7881H57.7191ZM60.4885 14.5293H57.9778V15.0468H60.4885V14.5293ZM60.2298 14.0615V14.7881H60.7472V14.0615H60.2298ZM57.9778 14.3202H60.4885V13.8028H57.9778V14.3202ZM57.7191 12.1442V14.0615H58.2365V12.1442H57.7191ZM63.2938 17.7108H64.0796V17.1934H63.2938V17.7108ZM63.035 12.1442V17.4521H63.5525V12.1442H63.035ZM61.5791 12.4029H63.2938V11.8855H61.5791V12.4029ZM61.3204 11.3975V12.1442H61.8378V11.3975H61.3204ZM65.8351 11.1387H61.5791V11.6562H65.8351V11.1387ZM66.0938 12.1442V11.3975H65.5764V12.1442H66.0938ZM64.0796 12.4029H65.8351V11.8855H64.0796V12.4029ZM64.3384 17.4521V12.1442H63.8209V17.4521H64.3384ZM69.0952 17.4521V11.3975H68.5778V17.4521H69.0952ZM69.6224 17.1934H68.8365V17.7108H69.6224V17.1934ZM69.3637 11.3975V17.4521H69.8811V11.3975H69.3637ZM68.8365 11.6562H69.6224V11.1387H68.8365V11.6562ZM72.3271 17.7108H73.113V17.1934H72.3271V17.7108ZM72.0684 12.1442V17.4521H72.5858V12.1442H72.0684ZM70.6125 12.4029H72.3271V11.8855H70.6125V12.4029ZM70.3538 11.3975V12.1442H70.8712V11.3975H70.3538ZM74.8174 11.1387H70.6125V11.6562H74.8174V11.1387ZM75.0761 12.1442V11.3975H74.5587V12.1442H75.0761ZM73.113 12.4029H74.8174V11.8855H73.113V12.4029ZM73.3717 17.4521V12.1442H72.8543V17.4521H73.3717ZM82.0248 15.9759C81.2056 16.7825 79.8799 16.7825 79.0606 15.9759L78.6976 16.3446C79.7182 17.3495 81.3673 17.3495 82.3879 16.3446L82.0248 15.9759ZM82.0157 12.8638C82.8284 13.7496 82.8284 15.0996 82.0157 15.9853L82.397 16.3352C83.3912 15.2515 83.3912 13.5977 82.397 12.514L82.0157 12.8638ZM79.0606 12.8733C79.8799 12.0667 81.2056 12.0667 82.0248 12.8733L82.3879 12.5046C81.3673 11.4997 79.7182 11.4997 78.6976 12.5046L79.0606 12.8733ZM79.0698 15.9853C78.2571 15.0996 78.2571 13.7496 79.0698 12.8638L78.6885 12.514C77.6943 13.5977 77.6943 15.2515 78.6885 16.3352L79.0698 15.9853ZM85.056 17.4521V11.3975H84.5385V17.4521H85.056ZM85.5933 17.1934H84.7972V17.7108H85.5933V17.1934ZM85.3346 12.5176V17.4521H85.8521V12.5176H85.3346ZM88.925 17.3141L85.8121 12.3795L85.3745 12.6556L88.4874 17.5901L88.925 17.3141ZM89.5227 17.1934H88.7062V17.7108H89.5227V17.1934ZM89.264 11.3975V17.4521H89.7814V11.3975H89.264ZM88.7368 11.6562H89.5227V11.1387H88.7368V11.6562ZM88.9956 16.11V11.3975H88.4781V16.11H88.9956ZM85.538 11.5357L88.5182 16.2483L88.9555 15.9717L85.9753 11.2592L85.538 11.5357ZM84.7972 11.6562H85.7566V11.1387H84.7972V11.6562Z"
    fill="white" />
  <path
    d="M18.315 11.9417C17.9823 12.3364 17.8144 12.8416 17.8455 13.3545V35.6759C17.8144 36.1887 17.9823 36.6939 18.315 37.0886L18.3864 37.1593L31.0319 24.6665V24.3739L18.3864 11.8711L18.315 11.9417Z"
    fill="url(#paint0_linear_645_54006)" />
  <path
    d="M35.2158 28.8342L31.0312 24.6666V24.374L35.2158 20.1963L35.3076 20.2467L40.319 23.0621C41.7479 23.8593 41.7479 25.1712 40.319 25.9785L35.3281 28.7838L35.2158 28.8342Z"
    fill="url(#paint1_linear_645_54006)" />
  <path
    d="M35.3403 28.7731L31.0333 24.5146L18.3164 37.0881C18.9172 37.6103 19.809 37.6357 20.4393 37.1486L35.3506 28.7731"
    fill="url(#paint2_linear_645_54006)" />
  <path
    d="M35.3369 20.2567L20.4256 11.8811C19.7953 11.394 18.9036 11.4195 18.3027 11.9417L31.0299 24.5151L35.3369 20.2567Z"
    fill="url(#paint3_linear_645_54006)" />
  <path opacity="0.2"
    d="M35.2179 28.6826L20.4291 37.0077C19.8239 37.4551 18.993 37.4551 18.3878 37.0077L18.3164 37.0784L18.3878 37.149C18.9919 37.5997 19.825 37.5997 20.4291 37.149L35.3403 28.7734L35.2179 28.6826Z"
    fill="white" />
  <path opacity="0.12" fill-rule="evenodd" clip-rule="evenodd"
    d="M35.2158 28.6822L40.3189 25.8265C40.8462 25.5691 41.2232 25.0846 41.3395 24.5146C41.2869 25.1447 40.8976 25.6989 40.3189 25.9677L35.3076 28.7731L35.2158 28.6822ZM17.8432 35.7304C17.8601 36.1744 18.0249 36.6026 18.3149 36.9467L18.3864 37.0275L18.3149 37.0981C17.992 36.715 17.8244 36.2277 17.8432 35.7304ZM17.8432 35.7304C17.8438 35.7154 17.8445 35.7004 17.8455 35.6854V35.534C17.8415 35.5997 17.8408 35.6652 17.8432 35.7304Z"
    fill="white" />
  <path opacity="0.25"
    d="M20.4263 12.0242L40.3182 23.205C40.8456 23.4624 41.2225 23.9469 41.3389 24.5169C41.2863 23.8868 40.897 23.3326 40.3182 23.0638L20.4263 11.8829C18.9975 11.0857 17.834 11.7517 17.834 13.3663V13.5176C17.8646 11.893 19.0077 11.227 20.4263 12.0242Z"
    fill="white" />
  <defs>
    <linearGradient id="paint0_linear_645_54006" x1="25.4932" y1="-3.29472" x2="5.27532" y2="2.14364"
      gradientUnits="userSpaceOnUse">
      <stop stop-color="#00A0FF" />
      <stop offset="0.01" stop-color="#00A1FF" />
      <stop offset="0.26" stop-color="#00BEFF" />
      <stop offset="0.51" stop-color="#00D2FF" />
      <stop offset="0.76" stop-color="#00DFFF" />
      <stop offset="1" stop-color="#00E3FF" />
    </linearGradient>
    <linearGradient id="paint1_linear_645_54006" x1="42.1867" y1="14.2221" x2="17.4978" y2="14.2221"
      gradientUnits="userSpaceOnUse">
      <stop stop-color="#FFE000" />
      <stop offset="0.41" stop-color="#FFBD00" />
      <stop offset="0.78" stop-color="#FFA500" />
      <stop offset="1" stop-color="#FF9C00" />
    </linearGradient>
    <linearGradient id="paint2_linear_645_54006" x1="17.9427" y1="17.9832" x2="1.94894" y2="45.1933"
      gradientUnits="userSpaceOnUse">
      <stop stop-color="#FF3A44" />
      <stop offset="1" stop-color="#C31162" />
    </linearGradient>
    <linearGradient id="paint3_linear_645_54006" x1="8.38233" y1="8.46634" x2="15.5211" y2="20.617"
      gradientUnits="userSpaceOnUse">
      <stop stop-color="#32A071" />
      <stop offset="0.07" stop-color="#2DA771" />
      <stop offset="0.48" stop-color="#15CF74" />
      <stop offset="0.8" stop-color="#06E775" />
      <stop offset="1" stop-color="#00F076" />
    </linearGradient>
  </defs>
</svg>