<svg viewBox="0 0 400 11" fill="none" xmlns="http://www.w3.org/2000/svg">
  <path
    d="M368.354 2.47725C359.692 2.14824 350.881 1.81833 342.071 1.48842C339.233 1.37905 336.246 1.36109 333.408 1.25172C327.136 1.12169 320.863 0.991658 314.59 0.861629C311.155 0.748665 307.57 0.727109 304.136 0.614145C303.09 0.607858 302.044 0.601571 301.148 0.596182C298.908 0.582709 296.667 0.569237 294.278 0.554866C283.971 0.492892 273.665 0.430918 263.359 0.368944C260.969 0.354574 258.43 0.339305 256.039 0.41724C249.915 0.472721 243.94 0.436794 237.816 0.492275C230.944 0.543266 224.074 0.50195 217.202 0.55294C206.148 0.671087 194.944 0.788337 183.89 0.906484C177.467 0.960169 171.044 1.01385 164.621 1.06754C153.566 1.27799 142.511 1.48845 131.456 1.6989C125.331 1.84669 119.356 1.90306 113.231 2.05085C101.727 2.44322 90.2237 2.74329 78.7204 3.04335C72.5953 3.19114 66.4702 3.33893 60.3445 3.57902C48.9894 4.0646 37.4844 4.64158 26.1288 5.21946C23.7383 5.29739 21.198 5.46674 18.6583 5.54378C13.8769 5.79195 8.94506 6.22384 4.01378 6.56343C3.71505 6.56163 3.41576 6.65214 3.11703 6.65034C2.51957 6.64675 2.07036 6.82867 1.6206 7.10289C0.871 7.55993 0.568939 8.11197 0.565609 8.66581C0.562278 9.21964 0.857679 9.77528 1.60229 10.149C2.19753 10.5218 3.24142 10.805 3.98825 10.8095C9.96509 10.4762 15.7931 10.0497 21.77 9.71641C27.2981 9.47272 32.8263 9.22904 38.3545 8.98535C44.3308 8.74436 50.3076 8.41106 56.4333 8.17097C58.8237 8.09303 61.2146 7.92279 63.7544 7.84576C73.1661 7.62542 82.429 7.31188 91.8407 7.09155C97.667 6.94197 103.493 6.79238 109.32 6.6428C111.71 6.56487 114.101 6.48693 116.491 6.40899C125.753 6.18776 135.015 6.05884 144.277 5.83761C149.954 5.77943 155.481 5.62805 161.158 5.56988C163.1 5.58155 164.893 5.50002 166.834 5.5117C176.843 5.38726 186.851 5.35514 196.86 5.2307C202.387 5.17163 208.063 5.11345 213.59 5.05438C215.532 5.06606 217.624 4.98632 219.565 4.998C229.872 4.96767 240.178 5.02964 250.634 5.00021C257.057 5.03883 263.48 4.98514 269.903 5.02377C280.807 5.08933 291.86 5.1558 302.763 5.31367C304.854 5.32624 307.094 5.43202 309.185 5.4446C315.309 5.57373 321.283 5.70196 327.406 5.9234C331.886 6.04265 336.516 6.1628 340.996 6.28205C344.282 6.39411 347.418 6.50528 350.703 6.61735C360.112 6.95085 369.669 7.37756 379.077 7.80337C381.466 7.91004 383.855 8.01672 386.244 8.1234C388.783 8.23097 391.471 8.33944 394.009 8.53933C394.457 8.54202 394.756 8.63612 395.203 8.73112C396.248 8.82972 397.144 8.83511 398.043 8.47127C398.94 8.19974 399.541 7.6495 399.843 7.09746C400.448 5.90107 399.261 4.6016 397.172 4.2198C395.381 3.93211 393.589 3.82902 391.948 3.63453C390.753 3.53504 389.559 3.43555 388.364 3.42836C385.975 3.22938 383.585 3.21501 381.346 3.01693C377.164 2.89947 372.684 2.68791 368.354 2.47725Z"
    fill="#0077FF" />
</svg>