<svg viewBox="0 0 36 36" fill="none" xmlns="http://www.w3.org/2000/svg">
  <path d="M11.3332 0.423828H10.1211V1.63595H11.3332V0.423828Z" fill="#0D1526" />
  <path d="M12.5442 0.423828H11.332V1.63595H12.5442V0.423828Z" fill="#0D1526" />
  <path d="M13.757 0.423828H12.5449V1.63595H13.757V0.423828Z" fill="#0D1526" />
  <path d="M19.8176 0.423828H18.6055V1.63595H19.8176V0.423828Z" fill="#0D1526" />
  <path d="M21.0285 0.423828H19.8164V1.63595H21.0285V0.423828Z" fill="#0D1526" />
  <path d="M22.2434 0.423828H21.0312V1.63595H22.2434V0.423828Z" fill="#0D1526" />
  <path d="M13.757 1.63672H12.5449V2.84884H13.757V1.63672Z" fill="#0D1526" />
  <path d="M14.9699 1.63672H13.7578V2.84884H14.9699V1.63672Z" fill="#0D1526" />
  <path d="M16.1828 1.63672H14.9707V2.84884H16.1828V1.63672Z" fill="#0D1526" />
  <path d="M17.3938 1.63672H16.1816V2.84884H17.3938V1.63672Z" fill="#0D1526" />
  <path d="M18.6067 1.63672H17.3945V2.84884H18.6067V1.63672Z" fill="#0D1526" />
  <path d="M21.0285 1.63672H19.8164V2.84884H21.0285V1.63672Z" fill="#0D1526" />
  <path d="M22.2434 1.63672H21.0312V2.84884H22.2434V1.63672Z" fill="#0D1526" />
  <path d="M25.8781 1.63672H24.666V2.84884H25.8781V1.63672Z" fill="#0D1526" />
  <path d="M11.3332 2.84766H10.1211V4.05978H11.3332V2.84766Z" fill="#0D1526" />
  <path d="M13.757 2.84766H12.5449V4.05978H13.757V2.84766Z" fill="#0D1526" />
  <path d="M14.9699 2.84766H13.7578V4.05978H14.9699V2.84766Z" fill="#0D1526" />
  <path d="M18.6067 2.84766H17.3945V4.05978H18.6067V2.84766Z" fill="#0D1526" />
  <path d="M19.8176 2.84766H18.6055V4.05978H19.8176V2.84766Z" fill="#0D1526" />
  <path d="M21.0285 2.84766H19.8164V4.05978H21.0285V2.84766Z" fill="#0D1526" />
  <path d="M22.2434 2.84766H21.0312V4.05978H22.2434V2.84766Z" fill="#0D1526" />
  <path d="M25.8781 2.84766H24.666V4.05978H25.8781V2.84766Z" fill="#0D1526" />
  <path d="M12.5442 4.06055H11.332V5.27267H12.5442V4.06055Z" fill="#0D1526" />
  <path d="M13.757 4.06055H12.5449V5.27267H13.757V4.06055Z" fill="#0D1526" />
  <path d="M16.1828 4.06055H14.9707V5.27267H16.1828V4.06055Z" fill="#0D1526" />
  <path d="M18.6067 4.06055H17.3945V5.27267H18.6067V4.06055Z" fill="#0D1526" />
  <path d="M22.2434 4.06055H21.0312V5.27267H22.2434V4.06055Z" fill="#0D1526" />
  <path d="M24.6652 4.06055H23.4531V5.27267H24.6652V4.06055Z" fill="#0D1526" />
  <path d="M12.5442 5.27344H11.332V6.48556H12.5442V5.27344Z" fill="#0D1526" />
  <path d="M13.757 5.27344H12.5449V6.48556H13.757V5.27344Z" fill="#0D1526" />
  <path d="M14.9699 5.27344H13.7578V6.48556H14.9699V5.27344Z" fill="#0D1526" />
  <path d="M17.3938 5.27344H16.1816V6.48556H17.3938V5.27344Z" fill="#0D1526" />
  <path d="M18.6067 5.27344H17.3945V6.48556H18.6067V5.27344Z" fill="#0D1526" />
  <path d="M19.8176 5.27344H18.6055V6.48556H19.8176V5.27344Z" fill="#0D1526" />
  <path d="M23.4543 5.27344H22.2422V6.48556H23.4543V5.27344Z" fill="#0D1526" />
  <path d="M11.3332 6.48438H10.1211V7.6965H11.3332V6.48438Z" fill="#0D1526" />
  <path d="M13.757 6.48438H12.5449V7.6965H13.757V6.48438Z" fill="#0D1526" />
  <path d="M14.9699 6.48438H13.7578V7.6965H14.9699V6.48438Z" fill="#0D1526" />
  <path d="M16.1828 6.48438H14.9707V7.6965H16.1828V6.48438Z" fill="#0D1526" />
  <path d="M19.8176 6.48438H18.6055V7.6965H19.8176V6.48438Z" fill="#0D1526" />
  <path d="M22.2434 6.48438H21.0312V7.6965H22.2434V6.48438Z" fill="#0D1526" />
  <path d="M23.4543 6.48438H22.2422V7.6965H23.4543V6.48438Z" fill="#0D1526" />
  <path d="M11.3332 7.69531H10.1211V8.90743H11.3332V7.69531Z" fill="#0D1526" />
  <path d="M13.757 7.69531H12.5449V8.90743H13.757V7.69531Z" fill="#0D1526" />
  <path d="M16.1828 7.69531H14.9707V8.90743H16.1828V7.69531Z" fill="#0D1526" />
  <path d="M18.6067 7.69531H17.3945V8.90743H18.6067V7.69531Z" fill="#0D1526" />
  <path d="M21.0285 7.69531H19.8164V8.90743H21.0285V7.69531Z" fill="#0D1526" />
  <path d="M23.4543 7.69531H22.2422V8.90743H23.4543V7.69531Z" fill="#0D1526" />
  <path d="M25.8781 7.69531H24.666V8.90743H25.8781V7.69531Z" fill="#0D1526" />
  <path d="M12.5442 8.9082H11.332V10.1203H12.5442V8.9082Z" fill="#0D1526" />
  <path d="M14.9699 8.9082H13.7578V10.1203H14.9699V8.9082Z" fill="#0D1526" />
  <path d="M16.1828 8.9082H14.9707V10.1203H16.1828V8.9082Z" fill="#0D1526" />
  <path d="M18.6067 8.9082H17.3945V10.1203H18.6067V8.9082Z" fill="#0D1526" />
  <path d="M19.8176 8.9082H18.6055V10.1203H19.8176V8.9082Z" fill="#0D1526" />
  <path d="M21.0285 8.9082H19.8164V10.1203H21.0285V8.9082Z" fill="#0D1526" />
  <path d="M24.6652 8.9082H23.4531V10.1203H24.6652V8.9082Z" fill="#0D1526" />
  <path d="M25.8781 8.9082H24.666V10.1203H25.8781V8.9082Z" fill="#0D1526" />
  <path d="M1.63595 10.1211H0.423828V11.3332H1.63595V10.1211Z" fill="#0D1526" />
  <path d="M4.05978 10.1211H2.84766V11.3332H4.05978V10.1211Z" fill="#0D1526" />
  <path d="M8.90743 10.1211H7.69531V11.3332H8.90743V10.1211Z" fill="#0D1526" />
  <path d="M10.1203 10.1211H8.9082V11.3332H10.1203V10.1211Z" fill="#0D1526" />
  <path d="M17.3938 10.1211H16.1816V11.3332H17.3938V10.1211Z" fill="#0D1526" />
  <path d="M18.6067 10.1211H17.3945V11.3332H18.6067V10.1211Z" fill="#0D1526" />
  <path d="M25.8781 10.1211H24.666V11.3332H25.8781V10.1211Z" fill="#0D1526" />
  <path d="M29.5149 10.1211H28.3027V11.3332H29.5149V10.1211Z" fill="#0D1526" />
  <path d="M33.1516 10.1211H31.9395V11.3332H33.1516V10.1211Z" fill="#0D1526" />
  <path d="M35.5754 10.1211H34.3633V11.3332H35.5754V10.1211Z" fill="#0D1526" />
  <path d="M1.63595 11.332H0.423828V12.5442H1.63595V11.332Z" fill="#0D1526" />
  <path d="M2.84689 11.332H1.63477V12.5442H2.84689V11.332Z" fill="#0D1526" />
  <path d="M4.05978 11.332H2.84766V12.5442H4.05978V11.332Z" fill="#0D1526" />
  <path d="M5.27267 11.332H4.06055V12.5442H5.27267V11.332Z" fill="#0D1526" />
  <path d="M7.6965 11.332H6.48438V12.5442H7.6965V11.332Z" fill="#0D1526" />
  <path d="M10.1203 11.332H8.9082V12.5442H10.1203V11.332Z" fill="#0D1526" />
  <path d="M12.5442 11.332H11.332V12.5442H12.5442V11.332Z" fill="#0D1526" />
  <path d="M17.3938 11.332H16.1816V12.5442H17.3938V11.332Z" fill="#0D1526" />
  <path d="M18.6067 11.332H17.3945V12.5442H18.6067V11.332Z" fill="#0D1526" />
  <path d="M24.6652 11.332H23.4531V12.5442H24.6652V11.332Z" fill="#0D1526" />
  <path d="M25.8781 11.332H24.666V12.5442H25.8781V11.332Z" fill="#0D1526" />
  <path d="M28.3039 11.332H27.0918V12.5442H28.3039V11.332Z" fill="#0D1526" />
  <path d="M29.5149 11.332H28.3027V12.5442H29.5149V11.332Z" fill="#0D1526" />
  <path d="M34.3645 11.332H33.1523V12.5442H34.3645V11.332Z" fill="#0D1526" />
  <path d="M35.5754 11.332H34.3633V12.5442H35.5754V11.332Z" fill="#0D1526" />
  <path d="M2.84689 12.5449H1.63477V13.757H2.84689V12.5449Z" fill="#0D1526" />
  <path d="M4.05978 12.5449H2.84766V13.757H4.05978V12.5449Z" fill="#0D1526" />
  <path d="M5.27267 12.5449H4.06055V13.757H5.27267V12.5449Z" fill="#0D1526" />
  <path d="M6.48556 12.5449H5.27344V13.757H6.48556V12.5449Z" fill="#0D1526" />
  <path d="M8.90743 12.5449H7.69531V13.757H8.90743V12.5449Z" fill="#0D1526" />
  <path d="M10.1203 12.5449H8.9082V13.757H10.1203V12.5449Z" fill="#0D1526" />
  <path d="M14.9699 12.5449H13.7578V13.757H14.9699V12.5449Z" fill="#0D1526" />
  <path d="M16.1828 12.5449H14.9707V13.757H16.1828V12.5449Z" fill="#0D1526" />
  <path d="M19.8176 12.5449H18.6055V13.757H19.8176V12.5449Z" fill="#0D1526" />
  <path d="M23.4543 12.5449H22.2422V13.757H23.4543V12.5449Z" fill="#0D1526" />
  <path d="M24.6652 12.5449H23.4531V13.757H24.6652V12.5449Z" fill="#0D1526" />
  <path d="M29.5149 12.5449H28.3027V13.757H29.5149V12.5449Z" fill="#0D1526" />
  <path d="M31.9387 12.5449H30.7266V13.757H31.9387V12.5449Z" fill="#0D1526" />
  <path d="M33.1516 12.5449H31.9395V13.757H33.1516V12.5449Z" fill="#0D1526" />
  <path d="M35.5754 12.5449H34.3633V13.757H35.5754V12.5449Z" fill="#0D1526" />
  <path d="M1.63595 13.7578H0.423828V14.9699H1.63595V13.7578Z" fill="#0D1526" />
  <path d="M6.48556 13.7578H5.27344V14.9699H6.48556V13.7578Z" fill="#0D1526" />
  <path d="M10.1203 13.7578H8.9082V14.9699H10.1203V13.7578Z" fill="#0D1526" />
  <path d="M11.3332 13.7578H10.1211V14.9699H11.3332V13.7578Z" fill="#0D1526" />
  <path d="M12.5442 13.7578H11.332V14.9699H12.5442V13.7578Z" fill="#0D1526" />
  <path d="M13.757 13.7578H12.5449V14.9699H13.757V13.7578Z" fill="#0D1526" />
  <path d="M14.9699 13.7578H13.7578V14.9699H14.9699V13.7578Z" fill="#0D1526" />
  <path d="M16.1828 13.7578H14.9707V14.9699H16.1828V13.7578Z" fill="#0D1526" />
  <path d="M17.3938 13.7578H16.1816V14.9699H17.3938V13.7578Z" fill="#0D1526" />
  <path d="M23.4543 13.7578H22.2422V14.9699H23.4543V13.7578Z" fill="#0D1526" />
  <path d="M27.0891 13.7578H25.877V14.9699H27.0891V13.7578Z" fill="#0D1526" />
  <path d="M29.5149 13.7578H28.3027V14.9699H29.5149V13.7578Z" fill="#0D1526" />
  <path d="M30.7277 13.7578H29.5156V14.9699H30.7277V13.7578Z" fill="#0D1526" />
  <path d="M31.9387 13.7578H30.7266V14.9699H31.9387V13.7578Z" fill="#0D1526" />
  <path d="M6.48556 14.9688H5.27344V16.1809H6.48556V14.9688Z" fill="#0D1526" />
  <path d="M7.6965 14.9688H6.48438V16.1809H7.6965V14.9688Z" fill="#0D1526" />
  <path d="M8.90743 14.9688H7.69531V16.1809H8.90743V14.9688Z" fill="#0D1526" />
  <path d="M10.1203 14.9688H8.9082V16.1809H10.1203V14.9688Z" fill="#0D1526" />
  <path d="M12.5442 14.9688H11.332V16.1809H12.5442V14.9688Z" fill="#0D1526" />
  <path d="M13.757 14.9688H12.5449V16.1809H13.757V14.9688Z" fill="#0D1526" />
  <path d="M17.3938 14.9688H16.1816V16.1809H17.3938V14.9688Z" fill="#0D1526" />
  <path d="M19.8176 14.9688H18.6055V16.1809H19.8176V14.9688Z" fill="#0D1526" />
  <path d="M21.0285 14.9688H19.8164V16.1809H21.0285V14.9688Z" fill="#0D1526" />
  <path d="M25.8781 14.9688H24.666V16.1809H25.8781V14.9688Z" fill="#0D1526" />
  <path d="M28.3039 14.9688H27.0918V16.1809H28.3039V14.9688Z" fill="#0D1526" />
  <path d="M29.5149 14.9688H28.3027V16.1809H29.5149V14.9688Z" fill="#0D1526" />
  <path d="M35.5754 14.9688H34.3633V16.1809H35.5754V14.9688Z" fill="#0D1526" />
  <path d="M5.27267 16.1816H4.06055V17.3938H5.27267V16.1816Z" fill="#0D1526" />
  <path d="M6.48556 16.1816H5.27344V17.3938H6.48556V16.1816Z" fill="#0D1526" />
  <path d="M12.5442 16.1816H11.332V17.3938H12.5442V16.1816Z" fill="#0D1526" />
  <path d="M14.9699 16.1816H13.7578V17.3938H14.9699V16.1816Z" fill="#0D1526" />
  <path d="M21.0285 16.1816H19.8164V17.3938H21.0285V16.1816Z" fill="#0D1526" />
  <path d="M22.2434 16.1816H21.0312V17.3938H22.2434V16.1816Z" fill="#0D1526" />
  <path d="M24.6652 16.1816H23.4531V17.3938H24.6652V16.1816Z" fill="#0D1526" />
  <path d="M25.8781 16.1816H24.666V17.3938H25.8781V16.1816Z" fill="#0D1526" />
  <path d="M28.3039 16.1816H27.0918V17.3938H28.3039V16.1816Z" fill="#0D1526" />
  <path d="M34.3645 16.1816H33.1523V17.3938H34.3645V16.1816Z" fill="#0D1526" />
  <path d="M35.5754 16.1816H34.3633V17.3938H35.5754V16.1816Z" fill="#0D1526" />
  <path d="M1.63595 17.3926H0.423828V18.6047H1.63595V17.3926Z" fill="#0D1526" />
  <path d="M2.84689 17.3945H1.63477V18.6067H2.84689V17.3945Z" fill="#0D1526" />
  <path d="M6.48556 17.3945H5.27344V18.6067H6.48556V17.3945Z" fill="#0D1526" />
  <path d="M8.90743 17.3945H7.69531V18.6067H8.90743V17.3945Z" fill="#0D1526" />
  <path d="M12.5442 17.3926H11.332V18.6047H12.5442V17.3926Z" fill="#0D1526" />
  <path d="M16.1828 17.3945H14.9707V18.6067H16.1828V17.3945Z" fill="#0D1526" />
  <path d="M17.3938 17.3945H16.1816V18.6067H17.3938V17.3945Z" fill="#0D1526" />
  <path d="M18.6067 17.3926H17.3945V18.6047H18.6067V17.3926Z" fill="#0D1526" />
  <path d="M21.0285 17.3945H19.8164V18.6067H21.0285V17.3945Z" fill="#0D1526" />
  <path d="M24.6652 17.3926H23.4531V18.6047H24.6652V17.3926Z" fill="#0D1526" />
  <path d="M25.8781 17.3945H24.666V18.6067H25.8781V17.3945Z" fill="#0D1526" />
  <path d="M28.3039 17.3945H27.0918V18.6067H28.3039V17.3945Z" fill="#0D1526" />
  <path d="M35.5754 17.3926H34.3633V18.6047H35.5754V17.3926Z" fill="#0D1526" />
  <path d="M5.27267 18.6055H4.06055V19.8176H5.27267V18.6055Z" fill="#0D1526" />
  <path d="M7.6965 18.6055H6.48438V19.8176H7.6965V18.6055Z" fill="#0D1526" />
  <path d="M11.3332 18.6055H10.1211V19.8176H11.3332V18.6055Z" fill="#0D1526" />
  <path d="M18.6067 18.6055H17.3945V19.8176H18.6067V18.6055Z" fill="#0D1526" />
  <path d="M19.8176 18.6055H18.6055V19.8176H19.8176V18.6055Z" fill="#0D1526" />
  <path d="M21.0285 18.6055H19.8164V19.8176H21.0285V18.6055Z" fill="#0D1526" />
  <path d="M23.4543 18.6055H22.2422V19.8176H23.4543V18.6055Z" fill="#0D1526" />
  <path d="M25.8781 18.6055H24.666V19.8176H25.8781V18.6055Z" fill="#0D1526" />
  <path d="M27.0891 18.6055H25.877V19.8176H27.0891V18.6055Z" fill="#0D1526" />
  <path d="M29.5149 18.6055H28.3027V19.8176H29.5149V18.6055Z" fill="#0D1526" />
  <path d="M1.63595 19.8164H0.423828V21.0285H1.63595V19.8164Z" fill="#0D1526" />
  <path d="M2.84689 19.8164H1.63477V21.0285H2.84689V19.8164Z" fill="#0D1526" />
  <path d="M4.05978 19.8164H2.84766V21.0285H4.05978V19.8164Z" fill="#0D1526" />
  <path d="M6.48556 19.8164H5.27344V21.0285H6.48556V19.8164Z" fill="#0D1526" />
  <path d="M7.6965 19.8164H6.48438V21.0285H7.6965V19.8164Z" fill="#0D1526" />
  <path d="M8.90743 19.8164H7.69531V21.0285H8.90743V19.8164Z" fill="#0D1526" />
  <path d="M10.1203 19.8164H8.9082V21.0285H10.1203V19.8164Z" fill="#0D1526" />
  <path d="M12.5442 19.8164H11.332V21.0285H12.5442V19.8164Z" fill="#0D1526" />
  <path d="M13.757 19.8164H12.5449V21.0285H13.757V19.8164Z" fill="#0D1526" />
  <path d="M14.9699 19.8164H13.7578V21.0285H14.9699V19.8164Z" fill="#0D1526" />
  <path d="M16.1828 19.8164H14.9707V21.0285H16.1828V19.8164Z" fill="#0D1526" />
  <path d="M17.3938 19.8164H16.1816V21.0285H17.3938V19.8164Z" fill="#0D1526" />
  <path d="M18.6067 19.8164H17.3945V21.0285H18.6067V19.8164Z" fill="#0D1526" />
  <path d="M21.0285 19.8164H19.8164V21.0285H21.0285V19.8164Z" fill="#0D1526" />
  <path d="M25.8781 19.8164H24.666V21.0285H25.8781V19.8164Z" fill="#0D1526" />
  <path d="M28.3039 19.8164H27.0918V21.0285H28.3039V19.8164Z" fill="#0D1526" />
  <path d="M35.5754 19.8164H34.3633V21.0285H35.5754V19.8164Z" fill="#0D1526" />
  <path d="M2.84689 21.0312H1.63477V22.2434H2.84689V21.0312Z" fill="#0D1526" />
  <path d="M6.48556 21.0312H5.27344V22.2434H6.48556V21.0312Z" fill="#0D1526" />
  <path d="M10.1203 21.0312H8.9082V22.2434H10.1203V21.0312Z" fill="#0D1526" />
  <path d="M11.3332 21.0312H10.1211V22.2434H11.3332V21.0312Z" fill="#0D1526" />
  <path d="M12.5442 21.0312H11.332V22.2434H12.5442V21.0312Z" fill="#0D1526" />
  <path d="M14.9699 21.0312H13.7578V22.2434H14.9699V21.0312Z" fill="#0D1526" />
  <path d="M17.3938 21.0312H16.1816V22.2434H17.3938V21.0312Z" fill="#0D1526" />
  <path d="M18.6067 21.0312H17.3945V22.2434H18.6067V21.0312Z" fill="#0D1526" />
  <path d="M22.2434 21.0312H21.0312V22.2434H22.2434V21.0312Z" fill="#0D1526" />
  <path d="M24.6652 21.0312H23.4531V22.2434H24.6652V21.0312Z" fill="#0D1526" />
  <path d="M25.8781 21.0312H24.666V22.2434H25.8781V21.0312Z" fill="#0D1526" />
  <path d="M28.3039 21.0312H27.0918V22.2434H28.3039V21.0312Z" fill="#0D1526" />
  <path d="M29.5149 21.0312H28.3027V22.2434H29.5149V21.0312Z" fill="#0D1526" />
  <path d="M33.1516 21.0312H31.9395V22.2434H33.1516V21.0312Z" fill="#0D1526" />
  <path d="M34.3645 21.0312H33.1523V22.2434H34.3645V21.0312Z" fill="#0D1526" />
  <path d="M35.5754 21.0312H34.3633V22.2434H35.5754V21.0312Z" fill="#0D1526" />
  <path d="M1.63595 22.2422H0.423828V23.4543H1.63595V22.2422Z" fill="#0D1526" />
  <path d="M2.84689 22.2422H1.63477V23.4543H2.84689V22.2422Z" fill="#0D1526" />
  <path d="M6.48556 22.2422H5.27344V23.4543H6.48556V22.2422Z" fill="#0D1526" />
  <path d="M7.6965 22.2422H6.48438V23.4543H7.6965V22.2422Z" fill="#0D1526" />
  <path d="M8.90743 22.2422H7.69531V23.4543H8.90743V22.2422Z" fill="#0D1526" />
  <path d="M10.1203 22.2422H8.9082V23.4543H10.1203V22.2422Z" fill="#0D1526" />
  <path d="M12.5442 22.2422H11.332V23.4543H12.5442V22.2422Z" fill="#0D1526" />
  <path d="M13.757 22.2422H12.5449V23.4543H13.757V22.2422Z" fill="#0D1526" />
  <path d="M14.9699 22.2422H13.7578V23.4543H14.9699V22.2422Z" fill="#0D1526" />
  <path d="M19.8176 22.2422H18.6055V23.4543H19.8176V22.2422Z" fill="#0D1526" />
  <path d="M21.0285 22.2422H19.8164V23.4543H21.0285V22.2422Z" fill="#0D1526" />
  <path d="M22.2434 22.2422H21.0312V23.4543H22.2434V22.2422Z" fill="#0D1526" />
  <path d="M24.6652 22.2422H23.4531V23.4543H24.6652V22.2422Z" fill="#0D1526" />
  <path d="M31.9387 22.2422H30.7266V23.4543H31.9387V22.2422Z" fill="#0D1526" />
  <path d="M35.5754 22.2422H34.3633V23.4543H35.5754V22.2422Z" fill="#0D1526" />
  <path d="M6.48556 23.4531H5.27344V24.6653H6.48556V23.4531Z" fill="#0D1526" />
  <path d="M7.6965 23.4551H6.48438V24.6672H7.6965V23.4551Z" fill="#0D1526" />
  <path d="M12.5442 23.4551H11.332V24.6672H12.5442V23.4551Z" fill="#0D1526" />
  <path d="M13.757 23.4531H12.5449V24.6653H13.757V23.4531Z" fill="#0D1526" />
  <path d="M16.1828 23.4531H14.9707V24.6653H16.1828V23.4531Z" fill="#0D1526" />
  <path d="M17.3938 23.4531H16.1816V24.6653H17.3938V23.4531Z" fill="#0D1526" />
  <path d="M21.0285 23.4531H19.8164V24.6653H21.0285V23.4531Z" fill="#0D1526" />
  <path d="M23.4543 23.4531H22.2422V24.6653H23.4543V23.4531Z" fill="#0D1526" />
  <path d="M27.0891 23.4531H25.877V24.6653H27.0891V23.4531Z" fill="#0D1526" />
  <path d="M29.5149 23.4531H28.3027V24.6653H29.5149V23.4531Z" fill="#0D1526" />
  <path d="M1.63595 24.666H0.423828V25.8781H1.63595V24.666Z" fill="#0D1526" />
  <path d="M2.84689 24.666H1.63477V25.8781H2.84689V24.666Z" fill="#0D1526" />
  <path d="M5.27267 24.666H4.06055V25.8781H5.27267V24.666Z" fill="#0D1526" />
  <path d="M6.48556 24.666H5.27344V25.8781H6.48556V24.666Z" fill="#0D1526" />
  <path d="M8.90743 24.666H7.69531V25.8781H8.90743V24.666Z" fill="#0D1526" />
  <path d="M10.1203 24.666H8.9082V25.8781H10.1203V24.666Z" fill="#0D1526" />
  <path d="M13.757 24.666H12.5449V25.8781H13.757V24.666Z" fill="#0D1526" />
  <path d="M14.9699 24.666H13.7578V25.8781H14.9699V24.666Z" fill="#0D1526" />
  <path d="M17.3938 24.666H16.1816V25.8781H17.3938V24.666Z" fill="#0D1526" />
  <path d="M19.8176 24.666H18.6055V25.8781H19.8176V24.666Z" fill="#0D1526" />
  <path d="M23.4543 24.666H22.2422V25.8781H23.4543V24.666Z" fill="#0D1526" />
  <path d="M25.8781 24.666H24.666V25.8781H25.8781V24.666Z" fill="#0D1526" />
  <path d="M27.0891 24.666H25.877V25.8781H27.0891V24.666Z" fill="#0D1526" />
  <path d="M28.3039 24.666H27.0918V25.8781H28.3039V24.666Z" fill="#0D1526" />
  <path d="M29.5149 24.666H28.3027V25.8781H29.5149V24.666Z" fill="#0D1526" />
  <path d="M30.7277 24.666H29.5156V25.8781H30.7277V24.666Z" fill="#0D1526" />
  <path d="M31.9387 24.666H30.7266V25.8781H31.9387V24.666Z" fill="#0D1526" />
  <path d="M34.3645 24.666H33.1523V25.8781H34.3645V24.666Z" fill="#0D1526" />
  <path d="M11.3332 25.8789H10.1211V27.091H11.3332V25.8789Z" fill="#0D1526" />
  <path d="M12.5442 25.8789H11.332V27.091H12.5442V25.8789Z" fill="#0D1526" />
  <path d="M13.757 25.8789H12.5449V27.091H13.757V25.8789Z" fill="#0D1526" />
  <path d="M14.9699 25.8789H13.7578V27.091H14.9699V25.8789Z" fill="#0D1526" />
  <path d="M16.1828 25.8789H14.9707V27.091H16.1828V25.8789Z" fill="#0D1526" />
  <path d="M19.8176 25.8789H18.6055V27.091H19.8176V25.8789Z" fill="#0D1526" />
  <path d="M22.2434 25.8789H21.0312V27.091H22.2434V25.8789Z" fill="#0D1526" />
  <path d="M24.6652 25.8789H23.4531V27.091H24.6652V25.8789Z" fill="#0D1526" />
  <path d="M25.8781 25.8789H24.666V27.091H25.8781V25.8789Z" fill="#0D1526" />
  <path d="M30.7277 25.8789H29.5156V27.091H30.7277V25.8789Z" fill="#0D1526" />
  <path d="M31.9387 25.8789H30.7266V27.091H31.9387V25.8789Z" fill="#0D1526" />
  <path d="M33.1516 25.8789H31.9395V27.091H33.1516V25.8789Z" fill="#0D1526" />
  <path d="M35.5754 25.8789H34.3633V27.091H35.5754V25.8789Z" fill="#0D1526" />
  <path d="M11.3332 27.0898H10.1211V28.302H11.3332V27.0898Z" fill="#0D1526" />
  <path d="M12.5442 27.0898H11.332V28.302H12.5442V27.0898Z" fill="#0D1526" />
  <path d="M13.757 27.0898H12.5449V28.302H13.757V27.0898Z" fill="#0D1526" />
  <path d="M14.9699 27.0898H13.7578V28.302H14.9699V27.0898Z" fill="#0D1526" />
  <path d="M16.1828 27.0898H14.9707V28.302H16.1828V27.0898Z" fill="#0D1526" />
  <path d="M17.3938 27.0898H16.1816V28.302H17.3938V27.0898Z" fill="#0D1526" />
  <path d="M18.6067 27.0898H17.3945V28.302H18.6067V27.0898Z" fill="#0D1526" />
  <path d="M19.8176 27.0898H18.6055V28.302H19.8176V27.0898Z" fill="#0D1526" />
  <path d="M25.8781 27.0898H24.666V28.302H25.8781V27.0898Z" fill="#0D1526" />
  <path d="M28.3039 27.0898H27.0918V28.302H28.3039V27.0898Z" fill="#0D1526" />
  <path d="M30.7277 27.0898H29.5156V28.302H30.7277V27.0898Z" fill="#0D1526" />
  <path d="M35.5754 27.0898H34.3633V28.302H35.5754V27.0898Z" fill="#0D1526" />
  <path d="M13.757 28.3027H12.5449V29.5149H13.757V28.3027Z" fill="#0D1526" />
  <path d="M14.9699 28.3027H13.7578V29.5149H14.9699V28.3027Z" fill="#0D1526" />
  <path d="M16.1828 28.3027H14.9707V29.5149H16.1828V28.3027Z" fill="#0D1526" />
  <path d="M18.6067 28.3027H17.3945V29.5149H18.6067V28.3027Z" fill="#0D1526" />
  <path d="M19.8176 28.3027H18.6055V29.5149H19.8176V28.3027Z" fill="#0D1526" />
  <path d="M23.4543 28.3027H22.2422V29.5149H23.4543V28.3027Z" fill="#0D1526" />
  <path d="M24.6652 28.3027H23.4531V29.5149H24.6652V28.3027Z" fill="#0D1526" />
  <path d="M25.8781 28.3027H24.666V29.5149H25.8781V28.3027Z" fill="#0D1526" />
  <path d="M30.7277 28.3027H29.5156V29.5149H30.7277V28.3027Z" fill="#0D1526" />
  <path d="M12.5442 29.5156H11.332V30.7277H12.5442V29.5156Z" fill="#0D1526" />
  <path d="M13.757 29.5156H12.5449V30.7277H13.757V29.5156Z" fill="#0D1526" />
  <path d="M14.9699 29.5156H13.7578V30.7277H14.9699V29.5156Z" fill="#0D1526" />
  <path d="M16.1828 29.5156H14.9707V30.7277H16.1828V29.5156Z" fill="#0D1526" />
  <path d="M17.3938 29.5156H16.1816V30.7277H17.3938V29.5156Z" fill="#0D1526" />
  <path d="M18.6067 29.5156H17.3945V30.7277H18.6067V29.5156Z" fill="#0D1526" />
  <path d="M19.8176 29.5156H18.6055V30.7277H19.8176V29.5156Z" fill="#0D1526" />
  <path d="M23.4543 29.5156H22.2422V30.7277H23.4543V29.5156Z" fill="#0D1526" />
  <path d="M24.6652 29.5156H23.4531V30.7277H24.6652V29.5156Z" fill="#0D1526" />
  <path d="M25.8781 29.5156H24.666V30.7277H25.8781V29.5156Z" fill="#0D1526" />
  <path d="M27.0891 29.5156H25.877V30.7277H27.0891V29.5156Z" fill="#0D1526" />
  <path d="M28.3039 29.5156H27.0918V30.7277H28.3039V29.5156Z" fill="#0D1526" />
  <path d="M29.5149 29.5156H28.3027V30.7277H29.5149V29.5156Z" fill="#0D1526" />
  <path d="M30.7277 29.5156H29.5156V30.7277H30.7277V29.5156Z" fill="#0D1526" />
  <path d="M31.9387 29.5156H30.7266V30.7277H31.9387V29.5156Z" fill="#0D1526" />
  <path d="M34.3645 29.5156H33.1523V30.7277H34.3645V29.5156Z" fill="#0D1526" />
  <path d="M35.5754 29.5156H34.3633V30.7277H35.5754V29.5156Z" fill="#0D1526" />
  <path d="M12.5442 30.7266H11.332V31.9387H12.5442V30.7266Z" fill="#0D1526" />
  <path d="M13.757 30.7266H12.5449V31.9387H13.757V30.7266Z" fill="#0D1526" />
  <path d="M14.9699 30.7266H13.7578V31.9387H14.9699V30.7266Z" fill="#0D1526" />
  <path d="M16.1828 30.7266H14.9707V31.9387H16.1828V30.7266Z" fill="#0D1526" />
  <path d="M17.3938 30.7266H16.1816V31.9387H17.3938V30.7266Z" fill="#0D1526" />
  <path d="M18.6067 30.7266H17.3945V31.9387H18.6067V30.7266Z" fill="#0D1526" />
  <path d="M19.8176 30.7266H18.6055V31.9387H19.8176V30.7266Z" fill="#0D1526" />
  <path d="M23.4543 30.7266H22.2422V31.9387H23.4543V30.7266Z" fill="#0D1526" />
  <path d="M25.8781 30.7266H24.666V31.9387H25.8781V30.7266Z" fill="#0D1526" />
  <path d="M27.0891 30.7266H25.877V31.9387H27.0891V30.7266Z" fill="#0D1526" />
  <path d="M29.5149 30.7266H28.3027V31.9387H29.5149V30.7266Z" fill="#0D1526" />
  <path d="M30.7277 30.7266H29.5156V31.9387H30.7277V30.7266Z" fill="#0D1526" />
  <path d="M31.9387 30.7266H30.7266V31.9387H31.9387V30.7266Z" fill="#0D1526" />
  <path d="M33.1516 30.7266H31.9395V31.9387H33.1516V30.7266Z" fill="#0D1526" />
  <path d="M35.5754 30.7266H34.3633V31.9387H35.5754V30.7266Z" fill="#0D1526" />
  <path d="M11.3332 31.9395H10.1211V33.1516H11.3332V31.9395Z" fill="#0D1526" />
  <path d="M12.5442 31.9395H11.332V33.1516H12.5442V31.9395Z" fill="#0D1526" />
  <path d="M13.757 31.9395H12.5449V33.1516H13.757V31.9395Z" fill="#0D1526" />
  <path d="M19.8176 31.9395H18.6055V33.1516H19.8176V31.9395Z" fill="#0D1526" />
  <path d="M23.4543 31.9395H22.2422V33.1516H23.4543V31.9395Z" fill="#0D1526" />
  <path d="M24.6652 31.9395H23.4531V33.1516H24.6652V31.9395Z" fill="#0D1526" />
  <path d="M25.8781 31.9395H24.666V33.1516H25.8781V31.9395Z" fill="#0D1526" />
  <path d="M27.0891 31.9395H25.877V33.1516H27.0891V31.9395Z" fill="#0D1526" />
  <path d="M30.7277 31.9395H29.5156V33.1516H30.7277V31.9395Z" fill="#0D1526" />
  <path d="M34.3645 31.9395H33.1523V33.1516H34.3645V31.9395Z" fill="#0D1526" />
  <path d="M35.5754 31.9395H34.3633V33.1516H35.5754V31.9395Z" fill="#0D1526" />
  <path d="M12.5442 33.1523H11.332V34.3645H12.5442V33.1523Z" fill="#0D1526" />
  <path d="M14.9699 33.1523H13.7578V34.3645H14.9699V33.1523Z" fill="#0D1526" />
  <path d="M16.1828 33.1523H14.9707V34.3645H16.1828V33.1523Z" fill="#0D1526" />
  <path d="M18.6067 33.1523H17.3945V34.3645H18.6067V33.1523Z" fill="#0D1526" />
  <path d="M21.0285 33.1523H19.8164V34.3645H21.0285V33.1523Z" fill="#0D1526" />
  <path d="M24.6652 33.1523H23.4531V34.3645H24.6652V33.1523Z" fill="#0D1526" />
  <path d="M25.8781 33.1523H24.666V34.3645H25.8781V33.1523Z" fill="#0D1526" />
  <path d="M27.0891 33.1523H25.877V34.3645H27.0891V33.1523Z" fill="#0D1526" />
  <path d="M28.3039 33.1523H27.0918V34.3645H28.3039V33.1523Z" fill="#0D1526" />
  <path d="M29.5149 33.1523H28.3027V34.3645H29.5149V33.1523Z" fill="#0D1526" />
  <path d="M30.7277 33.1523H29.5156V34.3645H30.7277V33.1523Z" fill="#0D1526" />
  <path d="M31.9387 33.1523H30.7266V34.3645H31.9387V33.1523Z" fill="#0D1526" />
  <path d="M11.3332 34.3633H10.1211V35.5754H11.3332V34.3633Z" fill="#0D1526" />
  <path d="M12.5442 34.3633H11.332V35.5754H12.5442V34.3633Z" fill="#0D1526" />
  <path d="M13.757 34.3633H12.5449V35.5754H13.757V34.3633Z" fill="#0D1526" />
  <path d="M16.1828 34.3633H14.9707V35.5754H16.1828V34.3633Z" fill="#0D1526" />
  <path d="M18.6047 34.3633H17.3926V35.5754H18.6047V34.3633Z" fill="#0D1526" />
  <path d="M19.8176 34.3633H18.6055V35.5754H19.8176V34.3633Z" fill="#0D1526" />
  <path d="M23.4543 34.3633H22.2422V35.5754H23.4543V34.3633Z" fill="#0D1526" />
  <path d="M25.8781 34.3633H24.666V35.5754H25.8781V34.3633Z" fill="#0D1526" />
  <path d="M30.7277 34.3633H29.5156V35.5754H30.7277V34.3633Z" fill="#0D1526" />
  <path d="M35.5753 34.3633H34.3632V35.5754H35.5753V34.3633Z" fill="#0D1526" />
  <path
    d="M7.63595 0.423828H1.69656H0.423828V1.69656V7.63595V8.90868H1.69656H7.63595H8.90868V7.63595V1.69656V0.423828H7.63595ZM7.63595 7.63595H1.69656V1.69656H7.63595V7.63595Z"
    fill="#0D1526" />
  <path
    d="M34.3039 0.423828H28.3645H27.0918V1.69656V7.63595V8.90868H28.3645H34.3039H35.5766V7.63595V1.69656V0.423828H34.3039ZM34.3039 7.63595H28.3645V1.69656H34.3039V7.63595Z"
    fill="#0D1526" />
  <path
    d="M7.63595 27.0898H1.69656H0.423828V28.3626V34.302V35.5747H1.69656H7.63595H8.90868V34.302V28.3626V27.0898H7.63595ZM7.63595 34.302H1.69656V28.3626H7.63595V34.302Z"
    fill="#0D1526" />
  <path d="M6.48402 2.84766H2.84766V6.48402H6.48402V2.84766Z" fill="#0D1526" />
  <path d="M33.152 2.84766H29.5156V6.48402H33.152V2.84766Z" fill="#0D1526" />
  <path d="M6.48402 29.5156H2.84766V33.152H6.48402V29.5156Z" fill="#0D1526" />
</svg>